<?xml version="1.0" encoding="UTF-8"?>
<svg width="16px" height="16px" viewBox="0 0 16 16" version="1.1" xmlns="http://www.w3.org/2000/svg" xmlns:xlink="http://www.w3.org/1999/xlink">
    <title>pinggu</title>
    <g id="首页">
        <g id="首页-入住" transform="translate(-907.000000, -355.000000)">
            <g id="分组-24" transform="translate(99.000000, 345.000000)">
                <g id="编组-8" transform="translate(808.000000, 10.000000)">
                    <g id="pinggu" transform="translate(1.000000, 1.000000)">
                        <path d="M13.58976,14.3945345 L0.80420908,14.3945345 C0.363951902,14.3945345 0.00511214724,14.0356947 0.00511214724,13.5954375 L0.00511214724,0.809886626 C0.00511214724,0.369629448 0.363951902,0.0107896933 0.80420908,0.0107896933 C1.24446626,0.0107896933 1.60330601,0.369629448 1.60330601,0.809886626 L1.60330601,12.7963406 L13.58976,12.7963406 C14.0300172,12.7963406 14.3888569,13.1551804 14.3888569,13.5954375 C14.3888569,14.0356947 14.0300172,14.3945345 13.58976,14.3945345 L13.58976,14.3945345 Z M4.00059681,11.1981467 C3.56033963,11.1981467 3.20149988,10.839307 3.20149988,10.3990498 L3.20149988,6.40356515 C3.20149988,5.96330798 3.56033963,5.60446822 4.00059681,5.60446822 C4.44085399,5.60446822 4.79969374,5.96330798 4.79969374,6.40356515 L4.79969374,10.3990498 C4.79969374,10.839307 4.44085399,11.1981467 4.00059681,11.1981467 L4.00059681,11.1981467 Z M7.19698454,11.1981467 C6.75672736,11.1981467 6.39788761,10.839307 6.39788761,10.3990498 L6.39788761,8.80085595 C6.39788761,8.36059877 6.75672736,8.00175902 7.19698454,8.00175902 C7.63724172,8.00175902 7.99608147,8.36059877 7.99608147,8.80085595 L7.99608147,10.3990498 C7.99608147,10.839307 7.63724172,11.1981467 7.19698454,11.1981467 L7.19698454,11.1981467 Z M10.3933723,11.1981467 C9.95311509,11.1981467 9.59427534,10.839307 9.59427534,10.3990498 L9.59427534,6.40356515 C9.59427534,5.96330798 9.95311509,5.60446822 10.3933723,5.60446822 C10.8336294,5.60446822 11.1924692,5.96330798 11.1924692,6.40356515 L11.1924692,10.3990498 C11.1924692,10.839307 10.8336294,11.1981467 10.3933723,11.1981467 L10.3933723,11.1981467 Z M13.58976,11.1981467 C13.1495028,11.1981467 12.7906631,10.839307 12.7906631,10.3990498 L12.7906631,7.20266209 C12.7906631,6.76240491 13.1495028,6.40356515 13.58976,6.40356515 C14.0300172,6.40356515 14.3888569,6.76240491 14.3888569,7.20266209 L14.3888569,10.3990498 C14.3888569,10.839307 14.0300172,11.1981467 13.58976,11.1981467 Z M7.19698454,5.60446822 C6.98590233,5.60446822 6.78085104,5.5230508 6.63007804,5.37227779 L3.43369031,2.17589006 C3.20149988,1.98290061 3.10198969,1.67230822 3.17134528,1.37980859 C3.24070086,1.08730896 3.46987583,0.858133988 3.76539092,0.785762945 C4.05789055,0.716407362 4.36848294,0.818933006 4.56147239,1.04810798 L7.19095362,3.6775892 L10.6165163,0.252026503 C10.9271087,-0.0585658896 11.4306906,-0.0585658896 11.7442984,0.252026503 L14.1415892,2.6493173 C14.4129806,2.96594061 14.3948879,3.43936785 14.0993728,3.73488294 C13.8038577,4.03039804 13.3304304,4.0484908 13.0138071,3.77709939 L11.1924692,1.93766871 L7.76389104,5.36624687 C7.61311804,5.51701988 7.41108221,5.60446822 7.19698454,5.60446822 L7.19698454,5.60446822 Z" id="形状"></path>
                    </g>
                </g>
            </g>
        </g>
    </g>
</svg>