<?xml version="1.0" encoding="UTF-8"?>
<svg width="12px" height="15px" viewBox="0 0 12 15" version="1.1" xmlns="http://www.w3.org/2000/svg" xmlns:xlink="http://www.w3.org/1999/xlink">
    <title>yinshi</title>
    <g id="首页">
        <g id="首页-入住" transform="translate(-1026.000000, -357.000000)" >
            <g id="分组-24" transform="translate(99.000000, 345.000000)">
                <g id="yinshi" transform="translate(927.000000, 12.000000)">
                    <path d="M4.69833201,6.0876744 L4.69833201,1.10696705 L1.05250187,1.10696705 L1.05250187,6.0876744 C1.05250187,6.69914804 1.51884308,7.19464145 2.09434089,7.19464145 L2.09434089,13.2816715 L3.65649299,13.2816715 L3.65649299,7.19464145 C4.23199079,7.19464145 4.69833201,6.69850372 4.69833201,6.0876744 Z M5.74017103,6.0876744 C5.74017103,6.90662382 5.32173743,7.6224797 4.69833201,8.00521453 L4.69833201,13.2823159 C4.69833201,13.8931452 4.2319908,14.3886386 3.65649299,14.3886386 L2.09434089,14.3886386 C1.51823666,14.3886386 1.05250187,13.8931452 1.05250187,13.2816715 L1.05250187,8.00457019 C0.407938579,7.60947502 0.0107730169,6.87896957 0.0106628513,6.08831874 L0.0106628513,1.10761138 C0.0106628513,0.495493392 0.477610488,0 1.05250187,0 L4.69833201,0 C5.27382981,0 5.74017103,0.49613773 5.74017103,1.10696705 L5.74017103,6.0876744 Z M1.57342138,1.10696705 L2.61465397,1.10696705 L2.61465397,4.42657951 C2.60507529,4.72473688 2.37481649,4.96118111 2.09403768,4.96118111 C1.81325886,4.96118111 1.58300006,4.72473688 1.57342138,4.42657951 L1.57342138,1.10696705 L1.57342138,1.10696705 Z M11.007583,0.00128866251 C11.5545788,0.0238403795 11.9899923,0.51031309 11.9899923,1.10696705 L11.9899923,13.2816715 C11.9899923,13.8937895 11.532141,14.3886386 10.9675589,14.3886386 L9.94391262,14.3886386 C9.37933047,14.3886386 8.92087279,13.8937895 8.92087279,13.2816715 L8.92087279,8.86926738 C7.89662012,8.32995922 7.3017167,7.21848183 7.3017167,5.66756817 C7.3017167,4.01484961 7.42785321,2.77063928 7.82930689,1.91174111 C8.45210588,0.577968241 9.34597707,0 10.4557357,0 L11.007583,0 L11.007583,0.00128866251 Z M9.94512548,8.50006359 L9.94512548,13.2816715 L10.9675589,13.2816715 L10.9675589,1.10696705 L10.4557357,1.10696705 C9.72802514,1.10696705 9.18891287,1.45490779 8.7425837,2.41110051 C8.43997737,3.05801257 8.32536296,4.19333033 8.32536296,5.66756817 C8.32536296,6.92208786 8.78745919,7.67144914 9.59279225,7.97428645 L9.73651509,8.02969924 L9.83475603,8.06835932 C9.87902509,8.08575636 9.89661142,8.0921997 9.90449496,8.09413272 C9.91778552,8.09565162 9.93116632,8.09608244 9.94451905,8.09542138 L9.94451905,8.50070792 L9.94512548,8.50006359 Z M3.13557348,1.10761138 L4.1774125,1.10761138 L4.1774125,4.42657951 C4.1774125,4.62432013 4.07812581,4.80704 3.91695275,4.90591031 C3.75577969,5.00478063 3.55720629,5.00478063 3.39603323,4.90591031 C3.23486017,4.80704 3.13557348,4.62432013 3.13557348,4.42657951 L3.13557348,1.10696705 L3.13557348,1.10761138 Z" id="形状"></path>
                </g>
            </g>
        </g>
    </g>
</svg>