<?xml version="1.0" encoding="UTF-8"?>
<svg width="16px" height="15px" viewBox="0 0 16 15" version="1.1" xmlns="http://www.w3.org/2000/svg" xmlns:xlink="http://www.w3.org/1999/xlink">
    <title>caiwu</title>
    <g id="首页" >
        <g id="首页-入住" transform="translate(-1137.000000, -356.000000)">
            <g id="分组-24" transform="translate(99.000000, 345.000000)">
                <g id="编组-10" transform="translate(1038.000000, 11.000000)">
                    <g id="caiwu" transform="translate(1.002343, 1.014818)">
                        <path d="M12.5958998,13.1717014 L1.79941426,13.1717014 C0.839726651,13.1717014 0,12.2496823 0,11.1959462 L0,1.97575522 C0,0.9220191 0.839726651,0 1.79941426,0 L12.5958998,0 C13.5555874,0 14.395314,0.9220191 14.395314,1.97575522 L14.395314,11.1959462 C14.395314,12.2496823 13.5555874,13.1717014 12.5958998,13.1717014 Z M1.79941426,1.31717014 C1.43953141,1.31717014 1.1996095,1.58060416 1.1996095,1.97575522 L1.1996095,11.1959462 C1.1996095,11.5910973 1.43953139,11.8545313 1.79941426,11.8545313 L12.5958998,11.8545313 C12.9557826,11.8545313 13.1957045,11.5910973 13.1957045,11.1959462 L13.1957045,1.97575522 C13.1957045,1.58060418 12.9557826,1.31717014 12.5958998,1.31717014 L1.79941426,1.31717014 Z" id="形状" stroke="#FFFFFF" stroke-width="0.1"></path>
                        <polygon id="路径" stroke="#FFFFFF" stroke-width="0.2" points="6.7226163 1.98518184 7.99765702 1.98518184 7.99765702 10.9851818 6.7226163 10.9851818"></polygon>
                        <path d="M9.50330647,5.26868058 L8.54361888,5.26868058 C8.42365793,4.87352954 8.30369699,4.4783785 8.06377508,4.34666148 C7.82385318,4.08322746 7.46397032,3.95151044 6.98412652,3.95151044 C6.50428271,3.95151044 6.1014482,4.08322744 5.90447797,4.21494446 C5.70750774,4.34666148 5.54459512,4.6100955 5.54459512,5.00524654 C5.54459512,5.26868056 5.76290539,5.54766067 6.02162379,5.74061409 C6.28034219,5.93356752 6.44004541,5.91965193 7.03985015,6.18308595 C7.91738464,6.37028508 8.18373602,6.37028508 8.78354077,6.76543612 C9.38334553,7.16058716 9.73471468,7.72667645 9.73471468,8.42988892 C9.73471468,9.13310138 9.35290995,9.70351062 8.95051967,10.006964 C8.5481294,10.3104174 7.94381412,10.4056441 7.10408747,10.4056441 C6.26436082,10.4056441 5.79886975,10.2990434 5.25678036,9.91836076 C4.71469096,9.53767813 4.46494656,8.82503996 4.34498562,7.90302086 L5.30467321,7.90302086 C5.42463417,8.42988892 5.57058251,8.88124127 5.90447797,9.11657463 C6.23837343,9.351908 6.50428273,9.351908 7.10408747,9.35190802 C7.58393127,9.35190802 7.94381412,9.220191 8.30369697,9.08847398 C8.54361886,8.95675696 8.69809215,8.82503996 8.69809215,8.42988892 C8.69809215,8.03473788 8.42365793,7.77130384 8.06377508,7.50786982 C7.94381412,7.3761528 7.34400936,7.37390716 6.62424367,7.11047312 C5.90447797,6.8470391 5.7564772,6.80077719 5.30467321,6.47110656 C4.85286922,6.14143592 4.54524946,5.61801563 4.54524946,4.95943055 C4.54524946,4.30084547 4.73196633,3.90412692 5.21181013,3.50897588 C5.69165394,3.11382484 6.32008446,2.95577223 7.03985015,2.95577223 C7.75961585,2.95577223 8.33218535,3.11345782 8.78354077,3.55635938 C9.2348962,3.99926094 9.50330647,4.47837848 9.50330647,5.26868058 Z" id="路径"></path>
                    </g>
                </g>
            </g>
        </g>
    </g>
</svg>