<?xml version="1.0" encoding="UTF-8"?>
<svg width="16px" height="16px" viewBox="0 0 16 16" version="1.1" xmlns="http://www.w3.org/2000/svg" xmlns:xlink="http://www.w3.org/1999/xlink">
    <title>ruzhu-2</title>
    <g id="首页" >
        <g id="首页-入住" transform="translate(-446.000000, -355.000000)" >
            <g id="分组-24" transform="translate(99.000000, 345.000000)">
                <g id="编组-7" transform="translate(347.000000, 10.000000)">
                    <g id="ruzhu-2" transform="translate(1.000000, 1.000000)">
                        <path d="M7.55960202,12.0173821 C7.75248256,12.2431293 8.23358799,12.2431293 8.37934431,12.0173821 C8.57222485,11.7916348 8.57222485,11.4806791 8.37934431,11.3113687 L7.37548878,10.0885713 L12.7432665,10.0885713 C12.9843671,10.0885713 13.1345071,9.70236655 13.1345071,9.42018253 C13.1345071,9.13799852 12.9843671,8.8558145 12.7432665,8.85581451 L7.37548878,8.85581451 L8.37934431,7.58543315 C8.57222485,7.35968594 8.57222485,6.99229343 8.37934431,6.82298302 C8.18536786,6.59723581 7.70426243,6.59723581 7.55960202,6.82298302 L5.63079665,9.08045512 C5.4368202,9.25087214 5.4368202,9.58949294 5.63079665,9.81524015 L7.55960202,12.0173821 L7.55960202,12.0173821 Z" id="路径"></path>
                        <path d="M12.1942145,13.7082729 C12.1942145,13.9727513 11.9903748,14.3999992 11.7339314,14.3999992 L2.88334489,14.3999992 C2.37494659,14.4071628 1.94890432,14.0133394 1.91127082,13.501338 L1.91127082,7.10738024 L0.769330365,8.15644081 C0.565490699,8.31357857 0.273978073,8.05020682 0.120550372,7.83773886 C-0.0328773287,7.6274841 -0.0328773287,7.00557268 0.120550372,6.84732831 L7.3864479,0.132455401 C7.58014003,-0.0256365434 7.85687853,-0.0256365434 8.05057066,0.132455401 L14.2523375,6.36042255 C14.4572731,6.57178391 14.4057652,7.16824345 14.2523375,7.32648782 C14.0989098,7.48473218 13.4632807,7.60535202 13.309853,7.44600104 L7.67686461,1.83662552 L3.34253208,5.92884701 L3.34253208,13.0642294 L11.6824235,13.0642294 C11.9388669,13.0642294 12.1942145,13.4437946 12.1942145,13.7082729 Z" id="路径" ></path>
                    </g>
                </g>
            </g>
        </g>
    </g>
</svg>