<?xml version="1.0" encoding="UTF-8"?>
<svg width="57px" height="57px" viewBox="0 0 57 57" version="1.1" xmlns="http://www.w3.org/2000/svg" xmlns:xlink="http://www.w3.org/1999/xlink">
    <!-- Generator: Sketch 53.2 (72643) - https://sketchapp.com -->
    <title>icon_8</title>
    <desc>Created with Sketch.</desc>
    <g id="页面-1" stroke="none" stroke-width="1" fill="none" fill-rule="evenodd">
        <g id="后勤管理icon" transform="translate(-646.000000, -275.000000)" fill="#FE3D65">
            <g id="分组" transform="translate(108.000000, 124.000000)">
                <g id="icon_8" transform="translate(538.000000, 151.000000)">
                    <circle id="椭圆形" fill-opacity="0.203242" opacity="0.683058966" cx="28.5" cy="28.5" r="28.5"></circle>
                    <g id="changzhe" transform="translate(15.833333, 14.777778)" fill-rule="nonzero">
                        <path d="M19.9386561,17.0552945 C19.5022251,17.0552945 19.0948895,17.1386241 18.7166872,17.2913104 C18.6875918,17.263546 18.6729872,17.2357453 18.6439298,17.2080171 L10.875572,9.83672077 C10.3518548,9.33692463 9.59537439,9.17037418 8.91168941,9.35082495 L8.89712274,9.33692463 C8.88255608,9.35082495 8.85342274,9.35082495 8.83893194,9.36472527 C8.59160208,9.43415447 8.34427222,9.55907636 8.12607569,9.73952713 C3.35454401,12.4743065 0.0814064236,19.0682346 0.0814064236,24.5238207 C0.0814064236,25.2873247 -0.0349751736,25.6482625 0.0814064236,26.3840021 L15.0361003,26.3840021 L15.0361003,19.1931203 L15.778014,19.9011317 C15.9089622,20.0260536 16.0399105,20.123211 16.1853496,20.2064681 C16.258107,20.9005792 16.8690725,21.4420039 17.6110241,21.4420039 C18.3092758,21.4420039 18.8911458,20.9699722 19.0220941,20.3452904 L19.0511895,20.3452904 L19.0511895,20.0676459 C19.0511895,19.6095508 19.4439964,19.2486492 19.9094848,19.2486492 C20.3895399,19.2486492 20.7677801,19.6234511 20.7677801,20.0676821 L20.7677801,26.3839659 L23.0662408,26.3839659 L23.0662408,20.0677183 C23.0954121,18.4018519 21.6843042,17.0552945 19.9386561,17.0552945 L19.9386561,17.0552945 Z M24.215566,3.57592974 C24.0991085,3.14559899 22.6589811,2.57640985 22.2079455,2.68746761 L21.9315961,2.75689681 L20.5641503,1.28541762 C20.4186733,1.13273129 19.6912883,0.424756135 19.1385136,0.119311081 C18.3529378,-0.311019662 12.2575845,0.924479881 11.4720466,2.0766861 C11.1373926,2.57640985 10.9919536,3.15946312 10.919234,3.43707133 L10.439141,5.6998552 L10.1627536,5.76928441 C9.71175599,5.88034217 8.76617448,7.06027663 8.88251814,7.49060738 C8.99889974,7.92093812 9.46442613,8.18471841 9.92995252,8.05979652 L11.7629247,7.60166514 C12.1993557,9.82282045 14.2505245,11.5025511 16.7090668,11.5025511 C19.4876205,11.5025511 21.7424191,9.36472527 21.7424191,6.72710334 C21.7424191,6.17181451 21.6406042,5.6304622 21.451541,5.13066606 L23.6045626,4.57544963 C24.0700131,4.45049154 24.3464763,4.00626048 24.215566,3.57592974 Z M20.4041445,1.10493065 L20.5704779,1.28538142 C20.6309305,1.35481062 20.6007239,1.31314586 20.4041445,1.10493065 Z" id="形状"></path>
                    </g>
                </g>
            </g>
        </g>
    </g>
</svg>