<?xml version="1.0" encoding="UTF-8"?>
<svg width="57px" height="57px" viewBox="0 0 57 57" version="1.1" xmlns="http://www.w3.org/2000/svg" xmlns:xlink="http://www.w3.org/1999/xlink">
    <!-- Generator: Sketch 53.2 (72643) - https://sketchapp.com -->
    <title>icon_10</title>
    <desc>Created with Sketch.</desc>
    <g id="页面-1" stroke="none" stroke-width="1" fill="none" fill-rule="evenodd">
        <g id="后勤管理icon" transform="translate(-1176.000000, -275.000000)" fill="#FF8B43">
            <g id="分组" transform="translate(108.000000, 124.000000)">
                <g id="icon_10" transform="translate(1068.000000, 151.000000)">
                    <circle id="椭圆形" fill-opacity="0.202488" cx="28.5" cy="28.5" r="28.5"></circle>
                    <g id="zengzhifuwu-2" transform="translate(14.777778, 17.944444)" fill-rule="nonzero">
                        <path d="M22.1676716,0.529195444 C18.6983309,-0.677756112 16.4251144,0.548400304 15.2710869,1.53671192 C15.2710869,1.53671192 15.2710869,1.54409841 15.2623772,1.547053 L13.1589987,3.68913349 L7.62547291,9.3279757 C7.29878,9.66045028 6.76910613,9.66045028 6.44241322,9.3279757 C6.11572031,8.99550112 6.11572031,8.45645332 6.44241322,8.12397874 L12.5609366,1.89569506 C11.5796503,0.897042369 9.19030523,-0.832872285 5.27967603,0.524763554 C2.29372048,1.8292167 -3.920609,7.89795232 3.60306997,15.4114843 C7.62436884,19.4273597 10.1731114,21.9041036 11.6746338,23.3397685 C11.9093716,23.5642106 12.1303858,23.775781 12.3376764,23.9744798 L12.3376778,23.9744783 C13.110456,24.7152264 14.3294777,24.7161663 15.1033973,23.9766107 C15.2270665,23.8584327 15.3554997,23.7358902 15.4886969,23.6089833 C16.9441696,22.2222443 19.5572733,19.6904158 23.8428261,15.4114843 C31.3665051,7.89942961 25.1492724,1.8321713 22.1676716,0.529195444 Z" id="路径"></path>
                    </g>
                </g>
            </g>
        </g>
    </g>
</svg>