<?xml version="1.0" encoding="UTF-8"?>
<svg width="18px" height="18px" viewBox="0 0 18 18" version="1.1" xmlns="http://www.w3.org/2000/svg" xmlns:xlink="http://www.w3.org/1999/xlink">
    <title>形状结合</title>
    <g id="界面修改" stroke="none" stroke-width="1" >
        <g id="项目管理" transform="translate(-21.000000, -314.000000)">
            <rect fill="#F0F2F5" x="0" y="0" width="1920" height="1080"></rect>
            <g id="编组-8">
                <g id="侧边栏" fill="#191E3D">
                    <rect x="0" y="0" width="60" height="1080"></rect>
                </g>
                <path d="M31.7930193,323.586039 C34.1164706,323.586039 36,325.469568 36,327.793019 L36,330 C36,331.104569 35.1045695,332 34,332 L23,332 C21.8954305,332 21,331.104569 21,330 L21,327.793019 C21,325.469568 22.8835294,323.586039 25.2069807,323.586039 L31.7930193,323.586039 Z M38,323.586039 C38.5522847,323.586039 39,324.033754 39,324.586039 L39,324.587816 C39,325.140101 38.5522847,325.587816 38,325.587816 L37,325.587816 C36.4477153,325.587816 36,325.140101 36,324.587816 L36,324.586039 C36,324.033754 36.4477153,323.586039 37,323.586039 L38,323.586039 Z M28.3060688,314 C30.5152078,314 32.3060688,315.792452 32.3060688,318.003554 C32.3060688,320.214657 30.5152078,322.007109 28.3060688,322.007109 C26.0969298,322.007109 24.3060688,320.214657 24.3060688,318.003554 C24.3060688,315.792452 26.0969298,314 28.3060688,314 Z M38,319.582484 C38.5522847,319.582484 39,320.030199 39,320.582484 L39,320.584261 C39,321.136546 38.5522847,321.584261 38,321.584261 L35.0044199,321.584261 C34.4521351,321.584261 34.0044199,321.136546 34.0044199,320.584261 L34.0044199,320.582484 C34.0044199,320.030199 34.4521351,319.582484 35.0044199,319.582484 L38,319.582484 Z" id="形状结合" ></path>
            </g>
        </g>
    </g>
</svg>