<?xml version="1.0" encoding="UTF-8"?>
<svg width="35px" height="35px" viewBox="0 0 35 35" version="1.1" xmlns="http://www.w3.org/2000/svg" xmlns:xlink="http://www.w3.org/1999/xlink">
    <title>编组 4</title>
    <g id="首页" stroke="none" stroke-width="1" fill="none" fill-rule="evenodd">
        <g id="icon" transform="translate(-122.000000, -68.000000)">
            <g id="编组-4" transform="translate(122.000000, 68.000000)">
                <g id="分组-16">
                    <rect id="矩形" fill="#FF943E" x="0" y="0" width="35" height="35" rx="6"></rect>
                    <g id="jigou-2" transform="translate(8.000000, 8.000000)" fill="#FFFFFF" fill-rule="nonzero">
                        <path d="M0.888518868,5.61192281 L18.1075377,5.61192281 C18.5778774,5.62296481 18.9679151,5.23649489 18.9793868,4.76168899 C18.9908585,4.38626107 18.7499528,4.04395914 18.3828585,3.93353916 L9.8364434,0.0798819523 C9.60700943,-0.0194960272 9.35463208,-0.0194960272 9.12519811,0.0798819523 L0.521424528,3.96666515 C0.0855,4.15437911 -0.109518868,4.67335301 0.0855,5.10399092 C0.234632075,5.41316686 0.544367925,5.61192281 0.888518868,5.61192281 L0.888518868,5.61192281 Z M1.94391509,15.0197049 C1.46210377,14.9865789 1.04912264,15.3399228 1.01470755,15.8147287 C0.980292453,16.2895346 1.33591509,16.7091305 1.80625472,16.7422565 L17.0291981,16.7422565 C17.5110094,16.7091305 17.8666321,16.2895346 17.8207453,15.8147287 C17.7863302,15.3840908 17.4536509,15.0528309 17.0291981,15.0197049 L16.8112358,15.0197049 L16.8112358,7.73198638 L16.8685943,7.73198638 C17.338934,7.73198638 17.7289717,7.35655846 17.7289717,6.90383655 C17.7289717,6.55049262 17.488066,6.24131669 17.1553868,6.13089671 C17.1439151,6.13089671 17.1439151,6.11985471 17.1324434,6.11985471 L17.1095,6.11985471 C17.0521415,6.09777072 16.9833113,6.08672872 16.9144811,6.08672872 L1.87508491,6.08672872 C1.40474528,6.08672872 1.01470755,6.46215664 1.01470755,6.91487855 C1.01470755,7.36760045 1.40474528,7.74302838 1.87508491,7.74302838 L2.16187736,7.74302838 L2.16187736,15.0307469 L1.94391509,15.0307469 L1.94391509,15.0197049 Z M8.18451887,15.0197049 L8.18451887,7.73198638 L10.7771226,7.73198638 L10.7885943,15.0197049 L8.18451887,15.0197049 Z M15.0904811,15.0197049 L12.4978774,15.0197049 L12.4978774,7.73198638 L15.0790094,7.73198638 L15.0904811,15.0197049 Z M6.47523585,7.72094438 L6.48670755,15.0086629 L3.88263208,15.0086629 L3.88263208,7.72094438 L6.47523585,7.72094438 Z M18.096066,17.2612304 L0.865575472,17.2612304 C0.383764151,17.2943564 0.0281415094,17.7139523 0.0740283019,18.1887582 C0.108443396,18.6193961 0.441122642,18.9506561 0.865575472,18.9837821 L18.1075377,18.9837821 C18.5893491,18.9506561 18.9449717,18.5310602 18.8990849,18.0562543 C18.8646698,17.6366583 18.5205189,17.2943564 18.096066,17.2612304 Z" id="形状"></path>
                    </g>
                </g>
                <g id="分组-9-copy" transform="translate(22.000000, 22.000000)" fill="#FFFFFF">
                    <path d="M7.42460059,2.02701751 L10.0443602,2.02352969 C11.4526845,2.02165472 12.7562563,1.27931084 13.4764487,0.069061339 L13.5175456,1.11910481e-13 L13.5175456,1.11910481e-13 L13.5175456,7.0335286 C13.5175456,10.3472371 10.8312541,13.0335286 7.51754558,13.0335286 L-8.8817842e-16,13.0335286 L-8.8817842e-16,13.0335286 C1.52023301,12.4870431 2.53401375,11.0453216 2.53401375,9.42984805 L2.53401375,6.92411978 C2.53401375,4.22206826 4.72255147,2.03061489 7.42460059,2.02701751 Z" id="矩形" opacity="0.231472"></path>
                    <g id="shenhe" transform="translate(4.534014, 4.033529)" fill-rule="nonzero">
                        <path d="M4.1972424,3.44037606 C3.9891194,3.44037606 3.6769349,3.44037606 3.26068891,3.44037606 C3.20467817,3.44037606 3.1509615,3.41562025 3.11135593,3.37155462 C3.07175036,3.32748899 3.04950018,3.26772317 3.04950018,3.20540496 L3.04950018,3.01284523 C3.04966154,2.9288877 3.08993808,2.85135959 3.15524509,2.80929741 C3.57942912,2.53419294 3.88106708,2.03879051 3.85824401,1.43370808 C3.83536071,0.834454714 3.46922799,0.299588921 2.94772974,0.092892069 C2.00891244,-0.278425258 1.08274118,0.519015887 1.08274118,1.49863167 C1.08274118,2.07443482 1.37781525,2.54384103 1.78652294,2.80896241 C1.85201275,2.85104623 1.89244938,2.92870102 1.89268939,3.01284523 L1.89268939,3.20560596 C1.89268939,3.33537692 1.79813698,3.44057707 1.68150066,3.44057707 C1.2445015,3.44057707 0.916752135,3.44057707 0.698252556,3.44057707 C0.681382291,3.44057707 0.632771665,3.44057707 0.552420679,3.44057707 C0.247327162,3.44057634 2.33614297e-16,3.6879035 0,3.99299702 C0,3.99299702 0,3.99299702 0,3.99299702 C0,4.17602725 0,4.31329992 0,4.40481504 C0,4.45448256 0,4.50415008 0,4.5538176 C1.93437173e-17,4.71177104 0.128046562,4.8398176 0.286,4.8398176 L0.505306374,4.8398176 L0.505306374,4.8398176 C2.26916492,4.8398176 3.64107843,4.8398176 4.62104692,4.8398176 C4.65203128,4.8398176 4.68301564,4.8398176 4.714,4.8398176 C4.87195344,4.8398176 5,4.71177104 5,4.5538176 L5,4.28905702 L5,4.28905702 L5,3.99279601 C5,3.99279601 5,3.99279601 5,3.99279601 C5,3.68777308 4.75277059,3.44048172 4.44774767,3.44042665 C4.313173,3.44039293 4.22967124,3.44037606 4.1972424,3.44037606 Z M0.813869544,5.3754204 L4.10897372,5.3754204 C4.21498857,5.3754204 4.32100343,5.3754204 4.42701828,5.3754204 C4.59949117,5.3754204 4.73930808,5.51523731 4.73930808,5.6877102 C4.73930808,5.86018309 4.59949117,6 4.42701828,6 C4.32100343,6 4.21498857,6 4.10897372,6 L0.813869544,6 L0.562880087,6 C0.390407193,6 0.250590288,5.86018309 0.250590288,5.6877102 C0.250590288,5.51523731 0.390407193,5.3754204 0.562880087,5.3754204 L0.813869544,5.3754204 L0.813869544,5.3754204 Z" id="形状"></path>
                    </g>
                </g>
            </g>
        </g>
    </g>
</svg>