<?xml version="1.0" encoding="UTF-8"?>
<svg width="16px" height="16px" viewBox="0 0 16 16" version="1.1" xmlns="http://www.w3.org/2000/svg" xmlns:xlink="http://www.w3.org/1999/xlink">
    <title>ruzhu-2 copy</title>
    <g id="首页" >
        <g id="首页-入住" transform="translate(-676.000000, -355.000000)" >
            <g id="分组-24" transform="translate(99.000000, 345.000000)">
                <g id="ruzhu-2-copy" transform="translate(347.000000, 10.000000)">
                    <path d="M238.559602,13.0173821 C238.752483,13.2431293 239.233588,13.2431293 239.379344,13.0173821 C239.572225,12.7916348 239.572225,12.4806791 239.379344,12.3113687 L238.375489,11.0885713 L243.743266,11.0885713 C243.984367,11.0885713 244.134507,10.7023665 244.134507,10.4201825 C244.134507,10.1379985 243.984367,9.8558145 243.743266,9.85581451 L238.375489,9.85581451 L239.379344,8.58543315 C239.572225,8.35968594 239.572225,7.99229343 239.379344,7.82298302 C239.185368,7.59723581 238.704262,7.59723581 238.559602,7.82298302 L236.630797,10.0804551 C236.43682,10.2508721 236.43682,10.5894929 236.630797,10.8152402 L238.559602,13.0173821 L238.559602,13.0173821 Z" id="路径" transform="translate(240.309911, 10.420183) scale(-1, 1) translate(-240.309911, -10.420183) "></path>
                    <path d="M243.194214,14.7082729 C243.194214,14.9727513 242.990375,15.3999992 242.733931,15.3999992 L233.883345,15.3999992 C233.374947,15.4071628 232.948904,15.0133394 232.911271,14.501338 L232.911271,8.10738024 L231.76933,9.15644081 C231.565491,9.31357857 231.273978,9.05020682 231.12055,8.83773886 C230.967123,8.6274841 230.967123,8.00557268 231.12055,7.84732831 L238.386448,1.1324554 C238.58014,0.974363457 238.856879,0.974363457 239.050571,1.1324554 L245.252337,7.36042255 C245.457273,7.57178391 245.405765,8.16824345 245.252337,8.32648782 C245.09891,8.48473218 244.463281,8.60535202 244.309853,8.44600104 L238.676865,2.83662552 L234.342532,6.92884701 L234.342532,14.0642294 L242.682424,14.0642294 C242.938867,14.0642294 243.194214,14.4437946 243.194214,14.7082729 Z" id="路径" stroke="#F7F7F7" stroke-width="0.2"></path>
                </g>
            </g>
        </g>
    </g>
</svg>