<?xml version="1.0" encoding="UTF-8"?>
<svg width="18px" height="19px" viewBox="0 0 18 19" version="1.1" xmlns="http://www.w3.org/2000/svg" xmlns:xlink="http://www.w3.org/1999/xlink">
    <title>编组 4</title>
    <g id="界面修改" stroke="none" stroke-width="1">
        <g id="项目管理" transform="translate(-21.000000, -313.000000)">
            <rect fill="#F0F2F5" x="0" y="0" width="1920" height="1080"></rect>
            <g id="编组-11">
                <g id="侧边栏" fill="#191E3D">
                    <rect x="0" y="0" width="60" height="1080"></rect>
                </g>
                <g id="编组-8" transform="translate(19.355882, 134.000000)">
                    <g id="编组-4" transform="translate(1.644118, 179.000000)">
                        <path d="M3,0 L14.0771894,0 C15.7340436,-1.77594138e-15 17.0771894,1.34314575 17.0771894,3 L17.0771894,8.51126443 L17.0771894,8.51126443 L9.50870485,15.7434269 L8.45138034,18.9756896 L3,18.9756896 C1.34314575,18.9756896 2.27096485e-15,17.6325439 0,15.9756896 L0,3 C-6.46995335e-16,1.34314575 1.34314575,7.48448398e-16 3,0 Z" id="矩形"></path>
                        <text id="$" font-family="PingFangSC-Semibold, PingFang SC" font-size="11" font-weight="500" fill="#191E3D">
                            <tspan x="5.02270276" y="12.9987205">$</tspan>
                        </text>
                        <path d="M16.8318885,11.1454856 C16.8318885,11.1454856 16.8318885,11.1454856 16.8318885,11.1454856 C17.2869398,11.5906421 17.6015706,11.8962643 17.7757809,12.0623522 C17.7757809,12.0623522 17.7757809,12.0623522 17.7757809,12.0623522 C18.0644087,12.3375231 18.0753176,12.7945723 17.8001467,13.0832001 C17.794111,13.0895309 17.7879608,13.0957516 17.7816991,13.101859 C17.519744,13.3574047 17.3651846,13.5073551 17.3180444,13.5517344 C16.8610622,13.1194162 16.1757381,12.4707272 15.262072,11.6056673 L15.7244881,11.1484332 C16.0309698,10.8454223 16.523806,10.8441023 16.8318885,11.1454856 Z M17.095892,13.7391617 C15.5940701,15.1591617 14.094038,16.5808559 12.5926635,18.0012795 C11.9078614,17.3517433 11.2199272,16.7051721 10.5373622,16.0537299 C12.0387367,14.6337299 13.5392163,13.2128828 15.0396959,11.7920357 C15.7265115,12.4396658 16.4128796,13.0879313 17.095892,13.7391617 Z M9.50870485,18.9754778 C9.785892,18.0713794 10.0633029,17.1674928 10.3407137,16.2636061 C11.0257396,16.9122951 11.7114366,17.5605606 12.3962388,18.2096732 C11.433802,18.4652944 10.4713653,18.7207038 9.50870485,18.9754778 Z" id="形状备份-2"></path>
                        <path d="M17.0771894,15.216529 L17.0771894,15.9934742 C17.0771894,17.6433668 15.7448901,18.9836113 14.0950267,18.9934212 L12.9885724,19 L12.9885724,19 L15.1100088,17.0368929 L17.0771894,15.216529 Z" id="矩形"></path>
                    </g>
                </g>
            </g>
        </g>
    </g>
</svg>