<?xml version="1.0" encoding="UTF-8"?>
<svg width="18px" height="17px" viewBox="0 0 18 17" version="1.1" xmlns="http://www.w3.org/2000/svg" xmlns:xlink="http://www.w3.org/1999/xlink">
    <title>icon-2</title>
    <g id="界面修改">
        <g id="项目管理" transform="translate(-21.000000, -134.000000)">
            <g id="编组-8" transform="translate(19.355882, 134.000000)">
                <g id="icon-2" transform="translate(1.710431, 0.007484)">
                    <path d="M16.8995581,6.76588496 C15.7621498,5.61842588 14.1257477,3.96756367 11.9903519,1.81329836 C11.8901412,1.71220207 11.5838543,1.40344995 11.0714914,0.887042012 L11.071495,0.887038472 C9.9045357,-0.289133806 8.00505226,-0.296602414 6.82887998,0.870356871 C6.82858961,0.870644966 6.8282993,0.870933121 6.82800905,0.871221335 C6.36197671,1.33398166 6.08718787,1.60750323 6.00364253,1.69178604 C3.23769177,4.48215257 1.5676026,6.16698404 0.993375047,6.74628045 C0.953109528,6.78690141 0.740154635,7.01092859 0.354510369,7.418362 L0.354547572,7.41839721 C-0.137172226,7.93789948 -0.114650079,8.75765694 0.404852196,9.24937674 C0.645385019,9.4770461 0.963995782,9.60392125 1.29518965,9.60392125 C1.29518965,9.60392125 1.29518965,9.60392125 1.29518965,9.60392125 C1.43387512,9.60392125 1.69836426,9.60392125 2.08865708,9.60392125 L2.08865708,13.9545618 C2.09052528,15.6315964 3.4376564,16.9906315 5.10000161,16.9925162 L12.7734239,16.9925162 C14.4358146,16.9906318 15.7830259,15.6316421 15.7850482,13.9545618 L15.7850482,9.60392125 C16.1776822,9.60392125 16.4549783,9.60392125 16.6169365,9.60392125 C16.6169365,9.60392125 16.6169365,9.60392125 16.6169365,9.60392125 C17.335174,9.60392125 17.9174205,9.02167472 17.9174205,8.30343722 C17.9174205,7.94707544 17.7711844,7.6063259 17.512885,7.36081591 C17.2414736,7.10290427 17.0370415,6.90458325 16.8995581,6.76588496 Z" id="形状"></path>
                    <path d="M6.43067822,14.457715 L6.43067822,12.477774 C6.43067822,11.0970622 7.54996634,9.97777403 8.93067822,9.97777403 C10.3113901,9.97777403 11.4306782,11.0970622 11.4306782,12.477774 L11.4306782,14.457715" id="路径" stroke="#017CFF" stroke-width="1.5" stroke-linecap="round"></path>
                </g>
            </g>
        </g>
    </g>
</svg>