<?xml version="1.0" encoding="UTF-8"?>
<svg width="16px" height="16px" viewBox="0 0 16 16" version="1.1" xmlns="http://www.w3.org/2000/svg" xmlns:xlink="http://www.w3.org/1999/xlink">
    <title>tongji-2</title>
    <g id="首页" >
        <g id="首页-入住" transform="translate(-215.000000, -355.000000)"   >
            <g id="分组-24" transform="translate(100.000000, 345.000000)">
                <g id="编组-3" transform="translate(116.000000, 7.000000)">
                    <g id="tongji-2" transform="translate(0.000000, 4.000000)">
                        <path d="M13.5792356,6.01144268 C13.5368353,6.01009648 13.496454,6.00740409 13.4560728,6 L9,6 C8.61166682,6 8.29601992,5.68431681 8.29601992,5.29593897 L8.29601992,0.838680725 C8.28928971,0.800987206 8.28452875,0.761274394 8.28452875,0.720888489 C8.28188647,0.333856848 8.60291754,0.0168274604 8.98990468,0.0114426757 L9.02624783,0.0114426757 C11.7250625,0.0296163355 14.2670632,2.57325555 14.2845617,5.27036122 L14.2845617,5.30670854 C14.2785046,5.69172088 13.9648767,6.01144268 13.5792356,6.01144268 Z M9.7046531,4.59120485 L12.7904549,4.59120485 C12.4519253,3.15817815 11.1381881,1.84428988 9.7046531,1.50504823 L9.7046531,4.59120485 Z" id="形状"></path>
                        <path d="M6.6003663,14.4 C2.96093254,14.4 0,11.4384991 0,7.80000001 C0,4.16076822 2.96166525,1.2 6.6003663,1.2 C7.0231473,1.2 7.36679427,1.54362788 7.36679427,1.96638544 L7.36679427,7.03288188 L12.4335719,7.03288188 C12.8563529,7.03288188 13.2,7.37650976 13.2,7.79926732 C13.2007326,11.4384991 10.2398001,14.4 6.6003663,14.4 Z M5.83247288,2.79138543 C3.40203161,3.16212256 1.53358866,5.26711811 1.53358866,7.79926732 C1.53358866,10.592984 3.80649455,12.8657638 6.6003663,12.8657638 C9.13265603,12.8657638 11.2377684,10.9974245 11.6085261,8.56711812 L6.6003663,8.56711812 C6.17758529,8.56711812 5.83393833,8.22349024 5.83393833,7.80073268 L5.83393833,2.79138543 L5.83247288,2.79138543 Z" id="形状"></path>
                    </g>
                </g>
            </g>
        </g>
    </g>
</svg>