<?xml version="1.0" encoding="UTF-8"?>
<svg width="16px" height="16px" viewBox="0 0 16 16" version="1.1" xmlns="http://www.w3.org/2000/svg" xmlns:xlink="http://www.w3.org/1999/xlink">
    <title>xitong-2</title>
    <g id="首页">
        <g id="首页-入住" transform="translate(-1598.000000, -355.000000)" >
            <g id="分组-24" transform="translate(99.000000, 345.000000)">
                <g id="xitong-2" transform="translate(1500.000000, 11.000000)">
                    <path d="M7.21643836,4.16479136 C5.8589483,4.16479136 4.71356605,5.12870197 4.39116217,6.43928217 C4.38267786,6.46464824 4.38267786,6.49001431 4.37419355,6.51538037 C4.36570923,6.56611251 4.35722492,6.61684464 4.34874061,6.65912144 C4.34874061,6.6844875 4.3402563,6.70985357 4.3402563,6.73521964 C4.32328767,6.78595177 4.31480336,6.8366839 4.31480336,6.88741605 C4.30631905,6.98888032 4.29783473,7.09034461 4.29783473,7.19180887 C4.29783473,7.29327314 4.30631905,7.40319278 4.31480336,7.49620169 C4.32328767,7.54693383 4.32328767,7.59766596 4.33177198,7.64839811 C4.33177198,7.67376418 4.3402563,7.69913024 4.3402563,7.72449631 C4.34874061,7.77522845 4.35722492,7.82596058 4.36570923,7.86823737 C4.37419355,7.89360344 4.37419355,7.91896951 4.38267786,7.94433557 C4.70508174,9.24646042 5.85046399,10.2188264 7.20795404,10.2188264 C8.66725586,10.2188264 9.88051259,9.10271938 10.0926204,7.64839811 C10.1180734,7.49620169 10.1265577,7.34400529 10.1265577,7.18335352 C10.1265577,7.0311571 10.1180734,6.87050534 10.0926204,6.71830893 C9.8889969,5.28089839 8.67574018,4.16479136 7.21643836,4.16479136 Z M8.86239505,7.19180887 C8.86239505,8.13035341 8.12425982,8.89133545 7.22492267,8.89133545 C6.3171012,8.89133545 5.58745029,8.1303534 5.58745029,7.19180887 C5.58745029,6.25326433 6.32558551,5.49228229 7.22492267,5.49228229 C8.12425982,5.49228229 8.86239505,6.25326435 8.86239505,7.19180887 Z" id="形状" ></path>
                    <path d="M14.2329651,5.48382692 L14.2075122,5.40772872 C14.2075122,5.39927337 14.1990278,5.39081801 14.1990278,5.39081801 L14.1990278,5.38236265 C14.1990278,5.3739073 14.1905435,5.3739073 14.1905435,5.36545194 L14.1905435,5.35699659 L14.1905435,5.34854123 L14.1735749,5.31471981 L14.1650906,5.30626445 L14.1650906,5.2978091 C14.1396376,5.25553232 14.1057004,5.2217109 14.0632788,5.1794341 L14.0547945,5.17097875 C14.0463102,5.17097875 14.0463102,5.16252339 14.0378259,5.16252339 L14.0293416,5.15406804 L14.0208573,5.14561268 L14.012373,5.13715732 C14.012373,5.13715732 14.0038886,5.13715732 14.0038886,5.12870197 C13.9954043,5.12870197 13.9954043,5.12024661 13.98692,5.12024661 L13.9784357,5.12024661 L13.9699514,5.11179126 L13.9614671,5.11179126 C13.9529828,5.11179126 13.9529828,5.1033359 13.9444985,5.1033359 L13.9360141,5.1033359 C13.9275298,5.1033359 13.9275298,5.09488055 13.9190455,5.09488055 L13.9105612,5.09488055 L13.8935926,5.08642519 L13.8596553,5.07796983 L13.8426867,5.07796983 L13.8087494,5.07796983 L13.6305789,5.07796983 C12.7482103,5.07796983 12.0355281,4.33389849 12.0355281,3.42072003 C12.0355281,3.0994165 12.1288555,2.78656833 12.2900574,2.51599691 C12.2900574,2.51599691 12.2900574,2.50754156 12.2985418,2.50754156 C12.3070261,2.4990862 12.3155104,2.48217549 12.3155104,2.46526478 L12.3155104,2.45680943 C12.3239947,2.43989871 12.332479,2.43144336 12.332479,2.41453265 L12.332479,2.40607729 C12.3409633,2.38916658 12.3409633,2.38071122 12.3494476,2.36380051 L12.357932,2.35534516 C12.3749006,2.28770231 12.3749006,2.22851482 12.3664163,2.16087196 L12.3664163,2.15241661 C12.3664163,2.13550589 12.357932,2.11859518 12.357932,2.10168447 L12.357932,2.09322912 C12.357932,2.07631841 12.3494476,2.05940769 12.3494476,2.04249697 L12.3494476,2.03404161 C12.3409633,2.0171309 12.3409633,2.00867554 12.332479,1.99176483 L12.332479,1.98330948 C12.3239947,1.96639877 12.3239947,1.95794341 12.3155104,1.9410327 L12.3155104,1.93257734 C12.3070261,1.91566663 12.2985418,1.90721128 12.2900574,1.89030057 C12.2815731,1.88184521 12.2730888,1.8649345 12.2646045,1.85647914 L12.2561202,1.84802379 L12.2476359,1.83956843 L12.2476359,1.78038093 L12.1882457,1.78038093 C11.3737517,0.977122091 10.3726027,0.376791809 9.30357932,0.0385775672 L9.2866107,0.0385775672 C9.25267345,0.0301222116 9.2187362,0.021666856 9.19328326,0.021666856 L9.0914715,0.021666856 C9.04904993,0.021666856 9.00662837,0.0385775672 8.96420681,0.0470329229 L8.92178523,0.0639436341 C8.91330092,0.0639436341 8.91330092,0.0639436341 8.90481661,0.0723989898 L8.88784798,0.0808543454 C8.83694211,0.106220412 8.78603624,0.14849719 8.74361467,0.190773969 C8.70967742,0.233050747 8.67574018,0.275327525 8.65877153,0.326059675 C8.39575784,0.901023891 7.82730888,1.27305957 7.21643836,1.27305955 C6.60556784,1.27305955 6.04560319,0.909479246 5.78258949,0.342970386 L5.78258949,0.326059675 L5.75713654,0.309148964 C5.74016791,0.275327541 5.72319929,0.241506119 5.69774635,0.216140035 C5.64684048,0.14849719 5.57896598,0.0977650567 5.51109148,0.0554882785 C5.51109148,0.0554882785 5.50260717,0.0554882785 5.50260715,0.0470329229 L5.49412284,0.0470329229 L5.48563853,0.0470329229 C5.48563853,0.0470329229 5.47715421,0.0385775672 5.4686699,0.0385775672 L5.46018559,0.0385775672 C5.45170128,0.0385775672 5.45170128,0.0385775672 5.44321696,0.0301222116 C5.40927972,0.021666856 5.37534247,0.0132115003 5.34140522,0.0132115003 L5.24807778,0.0132115003 C5.22262484,0.0132115003 5.18868759,0.021666856 5.16323464,0.0301222116 L5.14626602,0.0385775672 C4.06875828,0.376791809 3.07609368,0.977122108 2.25311533,1.78038093 L2.24463102,1.78883628 C2.23614671,1.79729164 2.21917808,1.81420235 2.21069377,1.83111308 L2.17675652,1.87338985 C2.16827221,1.88184521 2.1597879,1.89875592 2.15130358,1.91566663 L2.15130358,1.92412199 C2.14281927,1.93257734 2.14281927,1.94948805 2.13433496,1.96639877 L2.13433496,1.97485412 C2.12585065,1.99176483 2.12585065,2.00022019 2.11736633,2.0171309 L2.11736633,2.02558626 C2.10888202,2.04249697 2.10888202,2.05095232 2.10888202,2.06786303 L2.10888202,2.07631839 C2.10888202,2.0932291 2.10039771,2.10168446 2.10039771,2.11859518 L2.10039771,2.22851481 C2.10039771,2.24542552 2.10039771,2.26233623 2.10888202,2.27924694 L2.10888202,2.2877023 C2.10888202,2.30461301 2.11736633,2.31306836 2.11736633,2.32997907 L2.11736633,2.33843443 C2.12585065,2.35534514 2.12585065,2.37225585 2.13433496,2.38916658 L2.13433496,2.39762194 C2.14281927,2.41453265 2.14281927,2.422988 2.15130358,2.43989871 L2.15130358,2.44835407 C2.1597879,2.46526478 2.16827221,2.47372014 2.17675652,2.49063085 L2.18524083,2.4990862 L2.18524083,2.50754156 C2.3549271,2.77811296 2.45673884,3.09941649 2.45673884,3.42917539 C2.45673884,4.34235385 1.74405656,5.08642519 0.861688027,5.08642519 L0.658064515,5.08642519 L0.64109589,5.08642519 L0.615642953,5.09488055 L0.598674329,5.09488055 L0.590190016,5.09488055 C0.581705704,5.09488055 0.581705704,5.09488055 0.573221392,5.1033359 L0.564737079,5.1033359 C0.556252767,5.1033359 0.556252767,5.11179126 0.547768455,5.11179126 L0.539284142,5.11179126 C0.53079983,5.11179126 0.53079983,5.12024661 0.522315518,5.12024661 L0.513831205,5.12024661 C0.505346893,5.12024661 0.505346893,5.12870197 0.496862564,5.12870197 L0.488378252,5.12870197 C0.47989394,5.12870197 0.47989394,5.13715732 0.471409627,5.13715732 L0.462925315,5.14561268 L0.454441003,5.15406804 C0.454441003,5.15406804 0.44595669,5.15406804 0.44595669,5.16252339 C0.420503753,5.14561268 0.412019441,5.14561268 0.412019441,5.14561268 C0.412019441,5.14561268 0.403535129,5.14561268 0.403535129,5.15406804 L0.386566504,5.16252339 L0.352629255,5.19634481 L0.344144942,5.20480017 L0.33566063,5.21325552 L0.318692005,5.23016625 C0.318692005,5.23862161 0.310207693,5.23862161 0.310207693,5.24707696 L0.301723381,5.25553232 C0.301723381,5.26398768 0.293239068,5.26398768 0.293239068,5.27244303 C0.293239068,5.27244303 0.293239068,5.28089839 0.284754756,5.28089839 L0.259301819,5.31471981 C0.259301819,5.31471981 0.259301819,5.32317516 0.250817507,5.32317516 L0.242333178,5.33163052 L0.233848866,5.34854123 C0.233848866,5.35699659 0.225364553,5.35699659 0.225364553,5.36545194 L0.225364553,5.38236265 C0.225364553,5.39081801 0.225364553,5.39081801 0.216880241,5.39927337 C0.216880241,5.40772872 0.208395929,5.41618408 0.208395929,5.42463943 C0.208395929,5.43309479 0.199911616,5.44155014 0.199911616,5.4500055 C0.199911616,5.45846085 0.199911616,5.46691621 0.191427304,5.47537157 L0.191427304,5.49228229 C0.0811312438,5.99114831 0.0217410411,6.49846968 0.00477243288,7.01424639 L0.00477243288,7.38628207 C0.0132567452,7.89360344 0.0811312438,8.40938017 0.191427304,8.89979083 L0.191427304,8.91670154 L0.199911616,8.93361225 C0.199911616,8.9420676 0.199911616,8.95052296 0.208395929,8.95897832 L0.208395929,8.96743367 C0.208395929,8.97588903 0.216880241,8.97588903 0.216880241,8.98434438 L0.216880241,8.99279974 C0.216880241,9.00125509 0.225364553,9.00125509 0.225364553,9.00971045 L0.225364553,9.0181658 C0.225364553,9.02662116 0.225364553,9.02662116 0.233848866,9.02662116 L0.242333178,9.05198723 L0.250817507,9.06044258 L0.259301819,9.06889794 C0.259301819,9.07735329 0.267786132,9.07735329 0.267786132,9.07735329 L0.276270444,9.08580865 L0.301723381,9.11963007 C0.301723381,9.12808543 0.310207693,9.12808543 0.310207693,9.13654078 L0.327176318,9.16190687 L0.344144942,9.17881758 L0.352629255,9.18727293 L0.361113567,9.19572829 L0.369597879,9.20418365 L0.386566504,9.22109436 L0.395050816,9.22954971 L0.420503753,9.24646042 L0.428988066,9.24646042 L0.437472378,9.25491578 L0.44595669,9.26337113 C0.454441003,9.26337113 0.454441003,9.27182649 0.462925315,9.27182649 L0.488378252,9.28028185 L0.496862564,9.28028185 L0.513831205,9.2887372 L0.53079983,9.2887372 L0.556252767,9.29719256 L0.607158641,9.30564791 L0.658064515,9.31410327 L0.802297841,9.31410327 C1.68466637,9.31410327 2.39734866,10.0581746 2.39734866,10.9713531 C2.39734866,11.301112 2.30402122,11.6139601 2.13433496,11.8845315 L2.13433496,11.8929869 C2.13433496,11.8929869 2.13433496,11.9014423 2.12585065,11.9014423 C2.11736633,11.9098976 2.10888202,11.9268083 2.10888202,11.943719 L2.10888202,11.9521744 C2.10039771,11.9690851 2.10039771,11.9775405 2.0919134,11.9944512 L2.0919134,12.0029065 C2.08342908,12.0198172 2.08342908,12.0282726 2.07494476,12.0536387 C2.07494476,12.0705494 2.06646044,12.0874601 2.06646044,12.1043708 C2.06646044,12.1212815 2.05797613,12.1381922 2.05797613,12.1551029 L2.05797613,12.2565672 C2.05797613,12.2734779 2.05797613,12.2819333 2.06646044,12.3072994 L2.06646044,12.3157547 L2.07494476,12.3580315 L2.07494476,12.3664868 C2.08342907,12.3833976 2.08342907,12.3918529 2.0919134,12.4087636 L2.0919134,12.417219 C2.10039771,12.4256743 2.10039771,12.442585 2.10888202,12.4594958 L2.10888202,12.4679511 C2.11736633,12.4848618 2.12585065,12.4933172 2.13433496,12.5102279 L2.13433496,12.5186832 C2.14281927,12.5271386 2.15130358,12.5440493 2.16827221,12.56096 L2.20220946,12.5947815 L2.21069377,12.6032368 C3.0251878,13.4064957 4.0093681,14.0068259 5.07839152,14.3450402 L5.10384445,14.3534955 C5.14626602,14.3704062 5.18868758,14.3704062 5.23959345,14.3788616 C5.29898364,14.3788616 5.35837382,14.3704062 5.40927972,14.3619509 L5.4686699,14.3365848 L5.50260715,14.3196741 C5.57048165,14.2858527 5.63835616,14.2351206 5.68077773,14.1674777 C5.70623066,14.1336563 5.72319929,14.0998349 5.74016791,14.0744688 L5.74865222,14.0575581 L5.74865222,14.0491027 C6.01166592,13.4825939 6.58011488,13.1190135 7.18250111,13.1190135 C7.79337163,13.1190135 8.36182059,13.4910492 8.62483428,14.0744688 C8.64180291,14.1167456 8.66725585,14.1590223 8.6927088,14.1928438 C8.74361467,14.2520313 8.80300486,14.3027634 8.87087936,14.3365848 L8.87936367,14.3365848 C8.88784798,14.3365848 8.88784798,14.3365848 8.8963323,14.3450402 L8.90481661,14.3450402 C8.90481661,14.3450402 8.91330092,14.3450402 8.91330092,14.3534955 C8.92178523,14.3534955 8.92178523,14.3534955 8.92178523,14.3619509 L8.93026956,14.3619509 L8.94723819,14.3704062 L8.9557225,14.3704062 C8.96420681,14.3704062 8.96420681,14.3704062 8.97269112,14.3788616 L8.98965975,14.3788616 C9.00662837,14.387317 9.03208131,14.387317 9.04904993,14.387317 L9.10844012,14.387317 C9.15934599,14.387317 9.21025187,14.3788616 9.26115776,14.3619509 C10.3471498,14.0237366 11.3482987,13.414951 12.1712771,12.5947815 L12.1797614,12.5863261 L12.1882457,12.5778708 C12.19673,12.5694154 12.2052143,12.56096 12.2136986,12.5440493 C12.2221829,12.535594 12.2306673,12.5186832 12.2476359,12.5017725 C12.2561202,12.4848618 12.2646045,12.4764065 12.2730888,12.4594958 L12.2730888,12.4510404 C12.2815731,12.442585 12.2815731,12.4256743 12.2900574,12.4087636 L12.2900574,12.4003083 L12.3070261,12.3580315 L12.3070261,12.3495761 C12.3155104,12.3326654 12.3155104,12.3157547 12.3155104,12.3072994 L12.3155104,12.298844 C12.3155104,12.2903886 12.3239947,12.2734779 12.3239947,12.2481119 L12.3239947,12.1973797 C12.3239947,12.1635583 12.3239947,12.1297369 12.3155104,12.0959155 C12.3155104,12.0790047 12.3070261,12.062094 12.3070261,12.0451833 C12.3070261,12.0282726 12.2985418,12.0198173 12.2900574,12.0029065 L12.2900574,11.9944512 C12.2815731,11.9775405 12.2815731,11.9690851 12.2730888,11.9521744 L12.2730888,11.943719 C12.2646045,11.9352637 12.2646045,11.918353 12.2561202,11.9014423 L12.2561202,11.8929869 C12.0864339,11.6224155 12.0015908,11.3095673 12.0015908,10.9882638 C12.0015908,10.0750853 12.7142731,9.33101398 13.5966416,9.33101398 L13.7578436,9.33101398 L13.8087494,9.32255862 L13.8426867,9.32255862 C13.8851083,9.30564791 13.9190455,9.2887372 13.9529828,9.27182649 L13.9614671,9.26337113 L13.9699514,9.25491578 L13.9784357,9.25491578 C13.98692,9.25491578 13.98692,9.24646042 13.9954043,9.24646042 L14.0038886,9.23800507 C14.0038886,9.23800507 14.012373,9.23800507 14.012373,9.22954971 L14.0293416,9.212639 L14.0463102,9.19572829 C14.0632788,9.17881758 14.0802475,9.16190687 14.0972161,9.13654078 L14.1057004,9.12808543 L14.1057004,9.11963007 C14.1057004,9.11963007 14.1057004,9.11117472 14.1141847,9.11117472 L14.1141847,9.10271936 C14.1141847,9.09426401 14.122669,9.09426401 14.122669,9.08580865 L14.1311533,9.07735329 L14.1396376,9.06889794 L14.148122,9.06044258 L14.1566063,9.03507652 L14.1566063,9.02662116 C14.1566063,9.02662116 14.1566063,9.0181658 14.1650906,9.0181658 L14.1650906,9.00971045 L14.1905435,8.93361225 C14.3178082,8.37555874 14.3771984,7.80059453 14.3771984,7.2256303 C14.41962,6.61684466 14.3602298,6.04188043 14.2329651,5.48382692 L14.2329651,5.48382692 Z M10.7798498,10.7346031 L10.7798498,10.7937906 C10.7798498,10.8867995 10.7883341,10.9713531 10.7968184,11.0559066 C10.8222713,11.3180227 10.8901458,11.5716834 10.9834733,11.8168887 C10.6016792,12.1551029 10.1774635,12.4341297 9.72779497,12.6624243 C9.57507733,12.7385225 9.42235971,12.8061654 9.26964207,12.8653529 C8.81148917,12.1973797 8.07335395,11.7915226 7.28431285,11.7661565 L7.20795404,11.7661565 C6.39346001,11.7661565 5.62138754,12.180469 5.14626602,12.8653529 C4.52691118,12.6286029 3.95846221,12.2819333 3.44940345,11.8422548 C3.58515247,11.5124959 3.66151128,11.1573709 3.66151126,10.7937906 C3.66151126,10.1342728 3.4239505,9.50857646 2.99973487,9.0181658 C2.8300486,8.83214796 2.64339373,8.67149621 2.43977022,8.5362105 C2.13433496,8.35019266 1.79496245,8.22336233 1.4386213,8.18108555 C1.40468405,7.978157 1.37923111,7.76677309 1.3707468,7.55538918 C1.36226249,7.42855885 1.36226249,7.3017285 1.36226249,7.17489816 C1.36226249,6.83668392 1.38771542,6.49846966 1.4386213,6.16871078 C2.03252319,6.09261258 2.59248784,5.79667511 2.99973487,5.34008588 C3.43243483,4.85813057 3.66151128,4.22397887 3.66151126,3.56446108 C3.66151126,3.20088077 3.59363676,2.8457558 3.44940345,2.51599691 C3.95846222,2.07631839 4.52691118,1.72964879 5.14626602,1.49289882 C5.18020327,1.5351756 5.2056562,1.57745237 5.23959345,1.61972917 C5.72319929,2.25388087 6.44436588,2.60900584 7.20795404,2.60900584 C8.02244808,2.60900584 8.79452055,2.20314874 9.26964207,1.50980953 L9.44781263,1.58590775 C9.51568713,1.61127381 9.58356164,1.64509524 9.64295183,1.67891666 L9.79566947,1.75501486 C9.8889969,1.79729164 9.97384004,1.84802377 10.0671675,1.89875592 C10.270791,2.0171309 10.4744145,2.15241661 10.6610694,2.29615765 C10.7374282,2.35534514 10.813787,2.41453263 10.8901458,2.48217549 C10.9240831,2.50754156 10.9580203,2.53290763 10.9834733,2.56672905 C10.8477242,2.89648793 10.7798497,3.24315755 10.7798498,3.5982825 C10.7798498,4.24934492 11.0089262,4.87504128 11.4331418,5.35699659 C11.8319046,5.82204118 12.3833849,6.11797864 12.9772868,6.19407684 C13.0281927,6.52383573 13.0621299,6.86204999 13.0621299,7.20026423 C13.0621299,7.53847847 13.036677,7.87669273 12.9772868,8.20645162 C12.3833849,8.29100517 11.8403889,8.58694263 11.4331418,9.04353187 C11.0258948,9.50857646 10.7968184,10.1089067 10.7798498,10.7346031 Z" id="形状" ></path>
                </g>
            </g>
        </g>
    </g>
</svg>