<?xml version="1.0" encoding="UTF-8"?>
<svg width="16px" height="14px" viewBox="0 0 16 14" version="1.1" xmlns="http://www.w3.org/2000/svg" xmlns:xlink="http://www.w3.org/1999/xlink">
    <title>jichu</title>
    <g id="首页" >
        <g id="首页-入住" transform="translate(-99.000000, -357.000000)" >
            <g id="分组-24" transform="translate(99.000000, 345.000000)">
                <g id="编组-5" transform="translate(0.000000, 7.000000)">
                    <g id="jichu" transform="translate(1.000000, 6.000000)">
                        <path d="M1.02828452,10 C1.59619038,10 2.05656904,10.4477152 2.05656904,11 C2.05656904,11.5522847 1.59619038,12 1.02828452,12 C0.460378661,12 9.54791801e-15,11.5522847 9.54791801e-15,11 C9.54791801e-15,10.4477152 0.460378661,10 1.02828452,10 Z M13.3676987,10 C13.9356046,10 14.3959833,10.4477152 14.3959833,11 C14.3959833,11.5522847 13.9356046,12 13.3676987,12 L4.11313808,12 C3.54523222,12 3.08485356,11.5522847 3.08485356,11 C3.08485356,10.4477152 3.54523222,10 4.11313808,10 L13.3676987,10 Z M1.02828452,5 C1.59619038,5 2.05656904,5.44771525 2.05656904,6 C2.05656904,6.55228475 1.59619038,7 1.02828452,7 C0.460378677,7 3.63952406e-08,6.55228474 3.63952406e-08,6 C3.63952406e-08,5.44771526 0.460378677,5 1.02828452,5 L1.02828452,5 Z M13.3676987,5 C13.9356046,5 14.3959833,5.44771525 14.3959833,6 C14.3959833,6.55228475 13.9356046,7 13.3676987,7 L4.11313808,7 C3.7457674,7 3.40630288,6.80940109 3.22261754,6.5 C3.0389322,6.19059893 3.0389322,5.80940107 3.22261754,5.5 C3.40630288,5.19059891 3.7457674,5 4.11313808,5 L13.3676987,5 Z M1.02828452,0 C1.59619038,0 2.05656904,0.447715251 2.05656904,1 C2.05656904,1.55228475 1.59619038,2 1.02828452,2 C0.460378661,2 0,1.55228475 0,1 C0,0.447715251 0.460378661,0 1.02828452,0 Z M13.3676987,0 C13.9356046,0 14.3959833,0.447715251 14.3959833,1 C14.3959833,1.55228475 13.9356046,2 13.3676987,2 L4.11313808,2 C3.54523222,2 3.08485356,1.55228475 3.08485356,1 C3.08485356,0.447715251 3.54523222,0 4.11313808,0 L13.3676987,0 Z" id="形状"></path>
                    </g>
                </g>
            </g>
        </g>
    </g>
</svg>