<?xml version="1.0" encoding="UTF-8"?>
<svg width="35px" height="35px" viewBox="0 0 35 35" version="1.1" xmlns="http://www.w3.org/2000/svg" xmlns:xlink="http://www.w3.org/1999/xlink">
    <title>编组 9</title>
    <defs>
        <linearGradient x1="10.5308696%" y1="8.40440176%" x2="87.5764115%" y2="93.5743055%" id="linearGradient-1">
            <stop stop-color="#FF6F42" offset="0%"></stop>
            <stop stop-color="#FF8B40" offset="100%"></stop>
        </linearGradient>
    </defs>
    <g id="首页" stroke="none" stroke-width="1" fill="none" fill-rule="evenodd">
        <g id="icon" transform="translate(-988.000000, -122.000000)">
            <g id="编组-9" transform="translate(988.000000, 122.000000)">
                <rect id="矩形" fill="url(#linearGradient-1)" x="0" y="0" width="35" height="35" rx="6"></rect>
                <g id="shuju" transform="translate(8.000000, 10.000000)" fill="#FFFFFF" fill-rule="nonzero">
                    <path d="M4.21279702,15.4834969 L14.787203,15.4834969 C15.2059738,15.4834969 15.5454545,15.8229777 15.5454545,16.2417484 C15.5454545,16.6605192 15.2059738,17 14.787203,17 L4.21279702,17 C3.79402625,17 3.45454546,16.6605192 3.45454546,16.2417484 C3.45454546,15.8229777 3.79402625,15.4834969 4.21279702,15.4834969 Z M17,0 C16.6025317,0 16.2050635,0 15.8075952,0 C12.8759766,0 8.6571282,0 3.15105003,0 C2.76736669,0 2.38368334,0 2,0 C0.8954305,2.02906125e-16 -1.3527075e-16,0.8954305 0,2 C0,2.20689749 0,2.41379499 0,2.62069248 C0,4.02984979 0,6.77530104 0,10.8570462 C0,11.4077454 0,11.9584445 0,12.5091436 C1.3527075e-16,13.6137131 0.8954305,14.5091436 2,14.5091436 C2.39351934,14.5091436 2.78703869,14.5091436 3.18055803,14.5091436 C8.73118433,14.5091436 12.9845215,14.5091436 15.9405695,14.5091436 C16.293713,14.5091436 16.6468565,14.5091436 17,14.5091436 C18.1045695,14.5091436 19,13.6137131 19,12.5091436 C19,12.239767 19,11.9703903 19,11.7010136 C19,7.86024729 19,4.9039778 19,2.83220517 C19,2.55480344 19,2.27740172 19,2 C19,0.8954305 18.1045695,-2.02906125e-16 17,0 Z M15.0390496,8.15499554 L12.7582645,8.15499554 L12.0202479,6.29727921 L9.48037189,11.794603 L7.54111571,7.75312221 L6.70103306,9.79661017 L3.95702479,9.79661017 L3.95702479,8.28010705 L5.63326446,8.28010705 L7.42727274,3.9163693 L9.44896694,8.13224799 L12.1262397,2.33920606 L13.8378099,6.63849242 L15.0390496,6.63849242 L15.0390496,8.15499554 Z" id="形状"></path>
                </g>
            </g>
        </g>
    </g>
</svg>