<?xml version="1.0" encoding="UTF-8"?>
<svg width="18px" height="17px" viewBox="0 0 18 17" version="1.1" xmlns="http://www.w3.org/2000/svg" xmlns:xlink="http://www.w3.org/1999/xlink">
    <title>编组 9</title>
    <g id="界面修改" stroke="none" stroke-width="1">
        <g id="项目管理" transform="translate(-21.000000, -179.000000)">
            <g id="编组-8" transform="translate(19.355882, 134.000000)">
                <g id="编组-9" transform="translate(0.000000, 43.779942)">
                    <path d="M18.6099888,7.99342701 C17.4725805,6.84596792 15.8361784,5.19510572 13.7007826,3.0408404 C13.5996809,2.93884526 13.2866668,2.62675508 12.7617405,2.10456985 L12.7617474,2.10456292 C11.5907713,0.939701668 9.69848173,0.94048017 8.52846454,2.10630452 C8.06883572,2.56428623 7.79737195,2.83529409 7.71407325,2.91932809 C4.94812249,5.70969462 3.27803333,7.39452609 2.70380577,7.9738225 C2.66354025,8.01444345 2.45058536,8.23847063 2.06494109,8.64590404 L2.06497829,8.64593925 C1.5732585,9.16544153 1.59578064,9.98519899 2.11528292,10.4769188 C2.35581574,10.7045881 2.6744265,10.8314633 3.00562037,10.8314633 C3.00562037,10.8314633 3.00562037,10.8314633 3.00562037,10.8314633 C3.14430584,10.8314633 3.40879498,10.8314633 3.7990878,10.8314633 L3.7990878,15.1821038 C3.800956,16.8591384 5.14808712,18.2181736 6.81043233,18.2200583 L14.4838546,18.2200583 C13.0191337,17.5282174 12.1310681,16.7331977 11.8196578,15.8349989 C11.5082475,14.9368002 11.7004495,13.724745 12.3962639,12.1988334 C13.4445541,11.1172734 14.3042792,10.4865066 14.9754392,10.306533 C15.6465992,10.1265594 16.4866124,10.3015361 17.4954789,10.8314633 C17.8881129,10.8314633 18.165409,10.8314633 18.3273672,10.8314633 C18.3273672,10.8314633 18.3273672,10.8314633 18.3273672,10.8314633 C19.0456047,10.8314633 19.6278512,10.2492168 19.6278512,9.53097927 C19.6278512,9.17461748 19.4816151,8.83386794 19.2233157,8.58835796 C18.9519043,8.33044632 18.7474722,8.1321253 18.6099888,7.99342701 Z" id="路径"></path>
                    <path d="M15.8791358,10.2200583 C17.0527409,10.2200583 18.1152409,10.6957557 18.8843396,11.4648545 C19.6534383,12.2339532 20.1291358,13.2964532 20.1291358,14.4700583 C20.1291358,15.6436634 19.6534383,16.7061634 18.8843396,17.4752621 C18.1152409,18.2443608 17.0527409,18.7200583 15.8791358,18.7200583 C14.7055307,18.7200583 13.6430307,18.2443608 12.873932,17.4752621 C12.1048333,16.7061634 11.6291358,15.6436634 11.6291358,14.4700583 C11.6291358,13.2964532 12.1048333,12.2339532 12.873932,11.4648545 C13.6430307,10.6957557 14.7055307,10.2200583 15.8791358,10.2200583 Z" id="椭圆形" fill="#191E3D"></path>
                    <path d="M15.8791358,10.7200583 C17.9502036,10.7200583 19.6291358,12.3989905 19.6291358,14.4700583 C19.6291358,16.5411261 17.9502036,18.2200583 15.8791358,18.2200583 C13.808068,18.2200583 12.1291358,16.5411261 12.1291358,14.4700583 C12.1291358,12.3989905 13.808068,10.7200583 15.8791358,10.7200583 Z M16.6973292,12.8690915 C16.6262828,12.8017599 16.5145701,12.8031435 16.445213,12.8722139 L16.445213,12.8722139 L14.0725738,15.1801873 L14.0274107,15.2321395 C13.9868077,15.2874435 13.9601986,15.3521846 13.9504075,15.4208006 L13.9504075,15.4208006 L13.9339205,15.5363416 L13.8216904,16.5157201 C13.8216904,16.6361518 13.8216904,16.6361518 13.9471321,16.6361518 L13.9471321,16.6361518 L15.0725229,16.5157201 L15.1606542,16.4951184 C15.2463253,16.4670036 15.3237095,16.4168337 15.384647,16.3489672 C15.4473299,16.2791591 15.492636,16.230671 15.5205653,16.203503 C16.0040053,15.733239 16.7291654,15.0278431 17.6960454,14.0873151 L17.6960454,14.0873151 C17.7736922,14.0056555 17.7704835,13.8861328 17.6947851,13.8143926 L17.6947851,13.8143926 Z M17.5658824,12.301734 C17.4298616,12.1680564 17.2130345,12.1641393 17.0722742,12.2928167 C17.0672732,12.2973884 17.0624191,12.3021182 17.0577193,12.3069989 C16.9354724,12.4339509 16.9392865,12.6359665 17.0662385,12.7582134 L17.0662385,12.7582134 L17.6960454,13.364679 L17.8121835,13.4733124 C17.9407532,13.593574 18.1419284,13.5888016 18.2646509,13.4625787 C18.3883668,13.3353339 18.3903725,13.133367 18.269208,13.0036903 L18.269208,13.0036903 L18.1463619,12.8722139 Z" id="形状结合"></path>
                </g>
            </g>
        </g>
    </g>
</svg>