<?xml version="1.0" encoding="UTF-8"?>
<svg width="57px" height="57px" viewBox="0 0 57 57" version="1.1" xmlns="http://www.w3.org/2000/svg" xmlns:xlink="http://www.w3.org/1999/xlink">
    <title>分组 16</title>
    <g id="页面-1" stroke="none" stroke-width="1" fill="none" fill-rule="evenodd">
        <g id="后勤管理-出入库记录-出库记录" transform="translate(-108.000000, -143.000000)">
            <g id="分组-16" transform="translate(108.000000, 143.000000)">
                <circle id="椭圆形" fill="#DEEEFF" cx="28.5" cy="28.5" r="28.5"></circle>
                <path d="M35.8920882,18 L21.0881034,18 C19.9601431,18 18.9275101,18.6326954 18.4152812,19.6376411 L16.3271778,23.734307 C16.1121167,24.156237 16,24.6230877 16,25.0966658 L16,36 C16,38.209139 17.790861,40 20,40 L37,40 C39.209139,40 41,38.209139 41,36 L41,25.0290979 C41,24.5447381 40.8827223,24.0675801 40.6581907,23.6384066 L38.5502788,19.6093087 C38.0327125,18.6200237 37.0085825,18 35.8920882,18 Z M28.1054692,36.8193332 L24.4409089,33.1690206 C24.2452668,32.9741392 24.2446502,32.6575573 24.4395316,32.4619152 C24.5333552,32.3677254 24.6608273,32.3147793 24.793773,32.3147793 L26.8333333,32.3147793 L26.8333333,32.3147793 L26.8333333,28.4232246 C26.8333333,28.1470822 27.057191,27.9232246 27.3333333,27.9232246 L29.5833333,27.9232246 C29.8594757,27.9232246 30.0833333,28.1470822 30.0833333,28.4232246 L30.0833333,32.3147793 L30.0833333,32.3147793 L32.1228936,32.3147793 C32.399036,32.3147793 32.6228936,32.5386369 32.6228936,32.8147793 C32.6228936,32.947725 32.5699475,33.0751971 32.4757577,33.1690206 L28.8111974,36.8193332 C28.616094,37.0136781 28.3005727,37.0136781 28.1054692,36.8193332 Z M19.9616641,23.1448805 L20.86651,21.3108742 C21.2033821,20.6280777 21.8987184,20.1957774 22.6600948,20.1957774 L34.2982386,20.1957774 C35.0596149,20.1957774 35.7549512,20.6280777 36.0918234,21.3108743 L36.9966693,23.1448805 C37.2410285,23.6401653 37.0376132,24.2397652 36.5423284,24.4841245 C36.4047165,24.5520182 36.2533258,24.5873321 36.0998769,24.5873321 L20.8584565,24.5873321 C20.3061717,24.5873321 19.8584565,24.1396168 19.8584565,23.5873321 C19.8584565,23.4338831 19.8937703,23.2824924 19.9616641,23.1448805 Z" id="形状" fill="#017CFF" fill-rule="nonzero"></path>
            </g>
        </g>
    </g>
</svg>