<?xml version="1.0" encoding="UTF-8"?>
<svg width="57px" height="57px" viewBox="0 0 57 57" version="1.1" xmlns="http://www.w3.org/2000/svg" xmlns:xlink="http://www.w3.org/1999/xlink">
    <title>编组 6</title>
    <g id="页面-1" stroke="none" stroke-width="1" fill="none" fill-rule="evenodd">
        <g id="后勤管理-出入库记录-入库记录" transform="translate(-407.000000, -143.000000)" fill="#FFA708">
            <g id="编组-6" transform="translate(407.000000, 143.000000)">
                <circle id="椭圆形" fill-opacity="0.197851" cx="28.5" cy="28.5" r="28.5"></circle>
                <path d="M35.9052373,18 L21.0937916,18 C19.9670664,18 18.935346,18.6313248 18.4225298,19.6345842 L16.3287382,23.7308203 C16.1126665,24.153537 16,24.6214978 16,25.0962361 L16,36 C16,38.209139 17.790861,40 20,40 L37,40 C39.209139,40 41,38.209139 41,36 L41,25.0397923 C41,24.5591353 40.8845079,24.0855148 40.6632486,23.6588119 L38.5684859,19.6190196 C38.0527222,18.6243589 37.0256668,18 35.9052373,18 Z M28.8304616,28.2114008 L32.4001934,31.4271959 C32.6053617,31.6120218 32.6218523,31.9281745 32.4370264,32.1333427 C32.3422105,32.2385943 32.207198,32.2986858 32.0655365,32.2986858 L30.1095535,32.2986858 L30.1095535,32.2986858 L30.1095535,36.2013142 C30.1095535,36.4774566 29.8856959,36.7013142 29.6095535,36.7013142 L27.364486,36.7013142 C27.0883436,36.7013142 26.864486,36.4774566 26.864486,36.2013142 L26.864486,32.2986858 L26.864486,32.2986858 L24.9122503,32.2986858 C24.6361079,32.2986858 24.4122503,32.0748282 24.4122503,31.7986858 C24.4122503,31.6566896 24.4726251,31.5213906 24.5783078,31.4265535 L28.1618622,28.2107585 C28.3521232,28.0400228 28.6405291,28.0402999 28.8304616,28.2114008 Z M19.9679049,23.1687875 L20.8760027,21.3244329 C21.2125801,20.640841 21.908343,20.2078853 22.6703025,20.2078853 L34.303737,20.2078853 C35.0656964,20.2078853 35.7614593,20.640841 36.0980368,21.3244329 L37.0061345,23.1687875 C37.2500932,23.6642697 37.0461931,24.263705 36.5507109,24.5076636 C36.4132891,24.5753254 36.2621605,24.6105137 36.1089846,24.6105137 L20.8650548,24.6105137 C20.3127701,24.6105137 19.8650548,24.1627985 19.8650548,23.6105137 C19.8650548,23.4573379 19.9002431,23.3062092 19.9679049,23.1687875 Z" id="形状" fill-rule="nonzero"></path>
            </g>
        </g>
    </g>
</svg>