<?xml version="1.0" encoding="UTF-8"?>
<svg width="57px" height="57px" viewBox="0 0 57 57" version="1.1" xmlns="http://www.w3.org/2000/svg" xmlns:xlink="http://www.w3.org/1999/xlink">
    <!-- Generator: Sketch 53.2 (72643) - https://sketchapp.com -->
    <title>icon_2</title>
    <desc>Created with Sketch.</desc>
    <g id="页面-1" stroke="none" stroke-width="1" fill="none" fill-rule="evenodd">
        <g id="后勤管理icon" transform="translate(-384.000000, -124.000000)">
            <g id="分组" transform="translate(108.000000, 124.000000)">
                <g id="icon_2" transform="translate(276.000000, 0.000000)">
                    <circle id="椭圆形" fill="#FFFFFF" cx="28.5" cy="28.5" r="28.5"></circle>
                    <g id="houqin-2" transform="translate(16.888889, 14.777778)" fill="#FFA708" fill-rule="nonzero">
                        <path d="M11.6019924,27.4413951 C11.6019924,27.4413951 1.24925829,26.0081852 0.00607911576,14.0881481 L0.00607911576,4.0404321 C0.00607911576,4.0404321 6.49249564,4.32707407 11.6019924,0.0274444444 C16.7114892,4.32707407 23.1979058,4.0404321 23.1979058,4.0404321 L23.1979058,14.0881481 C21.9364892,26.0112346 11.6019924,27.4413951 11.6019924,27.4413951 Z M16.6598168,10.1117531 L14.6081152,10.1117531 L14.6081152,8.49253086 L13.3466987,8.49253086 L13.3466987,10.1117531 L12.5898487,10.1117531 L12.5898487,11.0570617 L13.3466987,11.0570617 L13.3466987,11.1089012 C13.3466987,12.9293827 13.2798284,14.2284198 13.1612856,15.002963 C13.076178,15.8628889 12.8573298,16.6892716 12.5381763,17.4638148 L12.5381763,17.3784321 C11.7661286,17.4638148 11.0244764,17.5309012 10.3041012,17.5644444 L10.3041012,16.8905309 L12.3193281,16.8905309 L12.3193281,16.1647778 L10.3041012,16.1647778 L10.3041012,15.5731975 L12.4925829,15.5731975 L12.4925829,14.7651111 L10.3071408,14.7651111 L10.3071408,14.1918272 L11.1977312,14.1918272 C12.0548866,14.2253704 12.4743455,13.8533457 12.4409104,13.0635556 L12.4409104,11.935284 L10.3071408,11.935284 L10.3071408,11.3437037 L10.6262944,11.3437037 C11.4834497,11.4107901 11.8877109,11.0052222 11.8360384,10.1818889 L11.8360384,9.98062963 L12.7266289,9.98062963 L12.7266289,9.08716049 L11.8360384,9.08716049 L11.8360384,8.49862963 L10.6779668,8.49862963 L10.6779668,9.08716049 L8.79648051,9.08716049 L8.79648051,8.49862963 L7.68704188,8.49862963 L7.68704188,9.08716049 L6.66271088,9.08716049 L6.66271088,9.98062963 L7.68704188,9.98062963 L7.68704188,11.362 L9.14906923,11.362 L9.14906923,11.9535802 L7.01529959,11.9535802 L7.01529959,14.1948765 L9.14906923,14.1948765 L9.14906923,14.7864568 L6.91499418,14.7864568 L6.91499418,15.5945432 L9.14906923,15.5945432 L9.14906923,16.1861235 L7.09736766,16.1861235 L7.09736766,16.9118765 L9.14906923,16.9118765 L9.14906923,17.6376296 L6.55936591,17.6376296 L6.55936591,18.4975556 C8.76000582,18.5310988 10.711402,18.3969259 12.4257126,18.0919877 L12.4257126,18.9854568 C13.3163031,18.0249012 13.9059773,17.0460494 14.1734584,16.0184074 C14.4743746,15.0243086 14.6263525,13.3867901 14.6263525,11.0784074 L15.4318354,11.0784074 L15.4318354,17.2168148 C15.4652705,17.6040864 15.2646597,17.7900988 14.8421611,17.7565556 L14.2555265,17.7565556 L14.2555265,18.6500247 L15.2798575,18.6500247 C16.2373182,18.6835679 16.6902123,18.2292099 16.6567772,17.3021975 L16.6567772,10.1117531 L16.6598168,10.1117531 Z M10.3071408,12.6579877 L11.3831443,12.6579877 L11.3831443,13.011716 C11.4165794,13.3166543 11.2494037,13.4660741 10.896815,13.4660741 L10.3071408,13.4660741 L10.3071408,12.6579877 Z M10.1399651,10.6514938 L8.79648051,10.6514938 L8.79648051,9.97758025 L10.6779668,9.97758025 L10.6779668,10.1452963 C10.6931646,10.5142716 10.5259889,10.6667407 10.1399651,10.6514938 Z M9.14906923,13.4660741 L8.12473822,13.4660741 L8.12473822,12.6579877 L9.14906923,12.6579877 L9.14906923,13.4660741 Z" id="形状"></path>
                    </g>
                </g>
            </g>
        </g>
    </g>
</svg>