<?xml version="1.0" encoding="UTF-8"?>
<svg width="18px" height="15px" viewBox="0 0 18 15" version="1.1" xmlns="http://www.w3.org/2000/svg" xmlns:xlink="http://www.w3.org/1999/xlink">
    <title>zhekouquan</title>
    <g id="界面修改" stroke="none" stroke-width="1">
        <g id="项目管理" transform="translate(-21.000000, -224.000000)" fill-rule="nonzero">
            <g id="编组-8" transform="translate(19.355882, 134.000000)">
                <g id="zhekouquan" transform="translate(1.644054, 90.000000)">
                    <path d="M17.8025835,4.69176665 C17.9157207,4.67480889 17.999717,4.57538133 18.0000646,4.45800579 L18.0000646,3.22403806 C18.0000646,2.98269204 18.0000646,2.74134602 18.0000646,2.5 C18.0000646,1.11928813 16.8807765,-2.53632657e-16 15.5000646,0 C15.2865466,0 15.0730286,0 14.8595106,0 C9.9532944,0 6.27363229,0 3.82052421,0 C3.38034947,0 2.94017474,0 2.5,0 C1.11928813,-1.90456553e-16 -6.13177648e-16,1.11928813 0,2.5 C0,2.99063637 0,3.48127275 0,3.97190912 C0,4.09441137 0,4.27816473 0,4.52316922 C0,4.62970625 0.0695866543,4.72486554 0.170342318,4.75072404 C1.36328938,5.06619777 2.24490144,6.17707902 2.24490144,7.5 C2.24490144,8.82292098 1.36328938,9.93380223 0.170342318,10.249276 C0.0697845967,10.2765574 0,10.3700562 0,10.4768308 C0,10.8692701 0,11.1635995 0,11.3598192 C0,11.7398795 0,12.1199397 0,12.5 C9.51317719e-16,13.8807119 1.11928813,15 2.5,15 C2.96825107,15 3.43650214,15 3.9047532,15 C8.29196694,15 11.6129051,15 13.8675677,15 C14.4117334,15 14.955899,15 15.5000646,15 C16.8807765,15 18.0000646,13.8807119 18.0000646,12.5 C18.0000646,12.1210484 18.0000646,11.7420967 18.0000646,11.3631451 C18.0000646,11.1804372 18.0000646,10.9063755 18.0000646,10.5409599 C18.0000646,10.4240794 17.9164374,10.3247828 17.8025835,10.307199 C16.467571,10.106537 15.4428859,8.92635499 15.4428859,7.5 C15.4428859,6.07364501 16.467571,4.89346297 17.8025835,4.69176665 Z" id="路径"></path>
                    <path d="M6.53507761,10.4944146 C6.2610222,10.4944146 5.9869668,10.3837402 5.78142524,10.1654944 C5.3804177,9.73831196 5.39250838,9.05771618 5.80963683,8.64604882 L10.6801656,3.8311957 C11.0962865,3.41952834 11.7592588,3.43194042 12.1602663,3.86015722 C12.5612739,4.28733968 12.5491832,4.96793546 12.1320547,5.37960281 L7.26152594,10.1944559 C7.0579995,10.3951179 6.79603478,10.4944146 6.53507761,10.4944146 L6.53507761,10.4944146 Z" id="路径" fill="#191E3D"></path>
                    <path d="M5.62928419,4.17356227 C5.62928419,4.92532761 6.22292978,5.53475383 6.95522873,5.53475383 C7.68752767,5.53475383 8.28117326,4.92532761 8.28117326,4.17356227 C8.28117326,3.42179693 7.68752767,2.81237071 6.95522873,2.81237071 C6.22292978,2.81237071 5.62928419,3.42179693 5.62928419,4.17356227 Z" id="路径" fill="#191E3D"></path>
                    <path d="M8.99956115,10.7054199 C8.99956115,11.4571853 9.59320674,12.0666115 10.3255057,12.0666115 C11.0578046,12.0666115 11.6514502,11.4571853 11.6514502,10.7054199 C11.6514502,10.219113 11.3987266,9.76974689 10.988478,9.52659342 C10.5782293,9.28343996 10.0727821,9.28343996 9.6625334,9.52659342 C9.25228472,9.76974689 8.99956115,10.219113 8.99956115,10.7054199 L8.99956115,10.7054199 Z" id="路径" fill="#191E3D"></path>
                </g>
            </g>
        </g>
    </g>
</svg>