<?xml version="1.0" encoding="UTF-8"?>
<svg width="15px" height="16px" viewBox="0 0 15 16" version="1.1" xmlns="http://www.w3.org/2000/svg" xmlns:xlink="http://www.w3.org/1999/xlink">
    <title>hangzheng</title>
    <g id="首页" >
        <g id="首页-入住" transform="translate(-1368.000000, -355.000000)" >
            <g id="分组-24" transform="translate(99.000000, 345.000000)">
                <g id="编组-15" transform="translate(1269.000000, 10.000000)">
                    <g id="hangzheng" transform="translate(0.000000, 0.800000)">
                        <path d="M3.61430357,14.381078 L1.55716071,14.381078 C0.7065,14.381078 0.0143035714,13.6904232 0.0143035714,12.841657 L0.0143035714,1.55257016 C0.0143035714,0.703804009 0.7065,0.0131492205 1.55716071,0.0131492205 L3.61430357,0.0131492205 C4.46496429,0.0131492205 5.15716071,0.703804009 5.15716071,1.55257016 L5.15716071,12.841657 C5.15716071,13.6904232 4.465125,14.381078 3.61430357,14.381078 Z M1.55716071,1.03942984 C1.2735,1.03942984 1.042875,1.2695412 1.042875,1.55257016 L1.042875,12.841657 C1.042875,13.1245256 1.2735,13.3547973 1.55716071,13.3547973 L3.61430357,13.3547973 C3.89796429,13.3547973 4.12858929,13.1245256 4.12858929,12.841657 L4.12858929,1.55257016 C4.12858929,1.2695412 3.89796429,1.03942984 3.61430357,1.03942984 L1.55716071,1.03942984 Z" id="形状"></path>
                        <path d="M2.58573214,8.22339421 C2.30175,8.22339421 2.07144643,7.99360356 2.07144643,7.7102539 L2.07144643,2.57885078 C2.07144643,2.29550111 2.30175,2.06571047 2.58573214,2.06571047 C2.86971429,2.06571047 3.10001786,2.29550111 3.10001786,2.57885078 L3.10001786,7.7102539 C3.10001786,7.99360356 2.86971429,8.22339421 2.58573214,8.22339421 Z M2.58573214,10.0193853 C2.15967857,10.0193853 1.81430357,10.3639911 1.81430357,10.7890958 C1.81430357,11.2142004 2.15967857,11.5588062 2.58573214,11.5588062 C3.01178571,11.5588062 3.35716071,11.2142004 3.35716071,10.7890958 C3.35716071,10.3639911 3.01178571,10.0193853 2.58573214,10.0193853 Z M10.935,14.3874922 C10.7305714,14.3874922 10.5263036,14.346441 10.3323214,14.2643385 C9.95303571,14.1036615 9.65908929,13.8052383 9.50464286,13.4239109 L5.26628571,2.95681069 C5.11183929,2.5754833 5.11553571,2.15711359 5.27657143,1.77867261 C5.43760714,1.40023163 5.73669643,1.10693987 6.118875,0.952837416 L8.02623214,0.183928731 C8.40841071,0.0298262806 8.82771429,0.0335144766 9.207,0.194191537 C9.58628571,0.354868597 9.88023214,0.653291759 10.0346786,1.03461915 L14.2730357,11.501559 C14.4274821,11.8828864 14.4237857,12.3012561 14.26275,12.6796971 C14.1017143,13.0581381 13.802625,13.3514298 13.4204464,13.5055323 L11.5130893,14.274441 C11.3263393,14.3498085 11.1305893,14.3873318 10.935,14.3874922 L10.935,14.3874922 Z M8.60416071,1.09779955 C8.53891071,1.09779955 8.47366071,1.11030735 8.41146429,1.1354833 L6.50410714,1.90439198 C6.37682143,1.95570601 6.27701786,2.05352339 6.22333929,2.17972383 C6.16966071,2.30592428 6.168375,2.4454343 6.21996429,2.57243653 L10.4583214,13.0395367 C10.50975,13.166539 10.6077857,13.2661203 10.7342679,13.3196793 C10.86075,13.3732383 11.0005714,13.3745212 11.1278571,13.3230468 L13.0352143,12.5541381 C13.1625,12.5028241 13.2623036,12.4050067 13.3159821,12.2788062 C13.3696607,12.1526058 13.3709464,12.0130958 13.3193571,11.8860935 L9.081,1.41899332 C9.02957143,1.29183073 8.93153571,1.1924098 8.80505357,1.13885078 C8.74154558,1.11180067 8.67321317,1.09779955 8.60416071,1.09779955 Z" id="形状"></path>
                        <path d="M10.5402857,9.13229399 C10.276875,9.23844989 9.97714286,9.11144766 9.87075,8.84878396 L7.558875,3.13945657 C7.45248214,2.87663252 7.57976786,2.57756793 7.84301786,2.47141203 C8.10642857,2.36525612 8.40616071,2.49225835 8.51255357,2.75492205 L10.8244286,8.46424944 C10.9308214,8.7270735 10.8036964,9.02613808 10.5402857,9.13229399 Z M11.6961429,11.9869577 C11.3011071,12.1461915 10.8514286,11.9558486 10.6918393,11.5616927 C10.53225,11.1675367 10.7230179,10.7188597 11.1180536,10.5596258 C11.5130893,10.400392 11.9627679,10.590735 12.1223571,10.9848909 C12.2821071,11.3790468 12.0911786,11.8277238 11.6961429,11.9869577 Z" id="形状"></path>
                    </g>
                </g>
            </g>
        </g>
    </g>
</svg>