<?xml version="1.0" encoding="UTF-8"?>
<svg width="16px" height="16px" viewBox="0 0 16 16" version="1.1" xmlns="http://www.w3.org/2000/svg" xmlns:xlink="http://www.w3.org/1999/xlink">
    <title>jichu-2</title>
    <g id="首页" >
        <g id="首页-入住" transform="translate(-1483.000000, -356.000000)" >
            <g id="分组-24" transform="translate(99.000000, 345.000000)">
                <g id="编组-21" transform="translate(1384.000000, 11.000000)">
                    <g id="jichu-2" transform="translate(1.000000, 1.000000)">
                        <path d="M1.20638429,10.3102895 L7.12394969,12.5216944 L13.0283874,10.344232 C13.3101658,10.1617894 13.66879,10.1564905 13.9556454,10.3305312 C14.2425009,10.5045719 14.4087076,10.8282956 14.3853891,11.1675507 C14.3620705,11.5068058 14.1532003,11.8037832 13.8453346,11.935415 L13.7231459,11.9981572 L7.47233879,14.3268179 C7.24995806,14.4243955 6.99794134,14.4243955 6.77556061,14.3268179 L0.534851689,11.9745003 C0.0975192631,11.7768223 -0.105884342,11.2604996 0.0760008922,10.8097465 C0.257886126,10.3589935 0.758972881,10.1375896 1.20638429,10.3102895 L1.20638429,10.3102895 Z M1.20638429,6.1960479 L7.12394969,8.40745278 L13.0283874,6.22999039 C13.3101658,6.0475478 13.66879,6.0422489 13.9556454,6.21628956 C14.2425009,6.39033022 14.4087076,6.71405397 14.3853891,7.05330905 C14.3620705,7.39256412 14.1532003,7.68954157 13.8453346,7.82117335 L13.7231459,7.88391553 L7.47233879,10.2125763 C7.24995806,10.3101539 6.99794134,10.3101539 6.77556061,10.2125763 L0.535861512,7.86025865 C0.0985289526,7.66258079 -0.104874766,7.14625795 0.0770105006,6.69550483 C0.258895767,6.24475171 0.759982663,6.02334782 1.20739411,6.1960479 L1.20638429,6.1960479 Z M7.48344685,0.0627421781 L13.6686155,2.37700311 C14.3825607,2.64442881 14.3825607,3.5279622 13.6686155,3.7953879 L7.48344685,6.10964882 C7.2612857,6.19193365 7.00983966,6.19193365 6.78666867,6.10964882 L0.603519684,3.7953879 C-0.110425496,3.5279622 -0.110425496,2.64340025 0.603519684,2.37597455 L6.78767849,0.0617136187 C7.00983965,-0.0205712156 7.26229552,-0.0205712156 7.48445667,0.0617136187 L7.48344685,0.0627421781 Z" id="形状"></path>
                    </g>
                </g>
            </g>
        </g>
    </g>
</svg>