<?xml version="1.0" encoding="UTF-8"?>
<svg width="14px" height="14px" viewBox="0 0 14 14" version="1.1" xmlns="http://www.w3.org/2000/svg" xmlns:xlink="http://www.w3.org/1999/xlink">
    <!-- Generator: Sketch 53.2 (72643) - https://sketchapp.com -->
    <title>dayin-2</title>
    <desc>Created with Sketch.</desc>
    <g id="页面-1" stroke="none" stroke-width="1" fill="none" fill-rule="evenodd">
        <g id="能力评估（评估等级）" transform="translate(-1771.000000, -387.000000)">
            <rect fill="#F0F2F5" x="0" y="0" width="1920" height="1080"></rect>
            <path d="M86,238 L1894,238 C1895.10457,238 1896,238.895431 1896,240 L1896,1027 C1896,1028.10457 1895.10457,1029 1894,1029 L86,1029 C84.8954305,1029 84,1028.10457 84,1027 L84,240 C84,238.895431 84.8954305,238 86,238 Z" id="Rectangle-5" fill="#FFFFFF"></path>
            <g id="编组" transform="translate(1446.000000, 378.000000)">
                <rect id="Rectangle-40-Copy-43" fill="#017CFF" x="308" y="0" width="110" height="32" rx="2"></rect>
                <g id="dayin-2" transform="translate(326.000000, 10.000000)" fill="#FFFFFF" fill-rule="nonzero">
                    <path d="M1.5005,10.5 C0.706221196,10.5000442 0.0495976868,9.88091076 0.003,9.088 L0.000500003906,9 L0.000500003906,4 C0.000455762171,3.2057212 0.619589239,2.5490977 1.4125,2.5025 L1.5,2.5 L1.999,2.5 L2,1.5 C1.99995576,0.705721196 2.61908923,0.0490976889 3.412,0.00249999609 L3.5,0 L8.5,0 C9.2942788,-4.42475768e-05 9.95090231,0.619089238 9.9975,1.412 L10,1.5 L9.9995,2.5 L10.5005,2.5 C11.2947788,2.49995575 11.9514023,3.11908924 11.998,3.912 L12,4 L12,9 C12.0000442,9.79427881 11.3809108,10.4509023 10.588,10.4975 L10.5,10.5 L10,10.5 C10,11.3284271 9.32842712,12 8.5,12 L3.5,12 C2.67157288,12 2,11.3284271 2,10.5 L1.5,10.5 L1.5005,10.5 Z M8.5005,8.5 L3.5005,8.5 C3.22435762,8.5 3.0005,8.72385763 3.0005,9 L3.0005,10.5 C3.0005,10.7761424 3.22435762,11 3.5005,11 L8.5005,11 C8.77664238,11 9.0005,10.7761424 9.0005,10.5 L9.0005,9 C9.0005,8.72385762 8.77664238,8.5 8.5005,8.5 L8.5005,8.5 Z M9.0005,4.5 C9.27661248,4.50004227 9.50042346,4.72388751 9.50042346,5 C9.50042346,5.27611248 9.27661248,5.49995773 9.0005,5.5 L6.0005,5.5 C5.72438752,5.49995773 5.50057655,5.27611248 5.50057655,5 C5.50057655,4.72388751 5.72438752,4.50004227 6.0005,4.5 L9.0005,4.5 L9.0005,4.5 Z M8.5,0.999999996 L3.5,0.999999996 C3.24651259,1.00003344 3.03315803,1.18975356 3.0035,1.4415 L3,1.5 L3,2.5 L9.00000017,2.5 L9,1.5 C9.00018775,1.26800748 8.84077304,1.06635823 8.615,1.013 L8.5585,1.003 L8.5,0.999999996 Z M10.0005,9.5 L10.5005,9.5 C10.7539874,9.49996656 10.967342,9.31024644 10.997,9.0585 L11.0005,9 L11.0005,4 C11.0005,3.72385763 10.7766424,3.50000001 10.5005,3.5 L1.5005,3.5 C1.24701259,3.50003344 1.03365803,3.68975356 1.004,3.9415 L0.999999996,4 L0.999999996,9 C1.00003344,9.25348742 1.18975356,9.46684197 1.4415,9.4965 L1.5,9.5 L2,9.5 L2,9 C2,8.17157288 2.67157288,7.5 3.5,7.5 L8.5,7.5 C9.32842712,7.5 10,8.17157288 10,9 L10,9.5 L10.0005,9.5 Z" id="形状"></path>
                </g>
            </g>
        </g>
    </g>
</svg>