<?xml version="1.0" encoding="UTF-8"?>
<svg width="57px" height="57px" viewBox="0 0 57 57" version="1.1" xmlns="http://www.w3.org/2000/svg" xmlns:xlink="http://www.w3.org/1999/xlink">
    <!-- Generator: Sketch 53.2 (72643) - https://sketchapp.com -->
    <title>icon_4</title>
    <desc>Created with Sketch.</desc>
    <g id="页面-1" stroke="none" stroke-width="1" fill="none" fill-rule="evenodd">
        <g id="后勤管理icon" transform="translate(-936.000000, -124.000000)">
            <g id="分组" transform="translate(108.000000, 124.000000)">
                <g id="icon_4" transform="translate(828.000000, 0.000000)">
                    <circle id="椭圆形" fill="#FFFFFF" cx="28.5" cy="28.5" r="28.5"></circle>
                    <g id="canyin" transform="translate(15.833333, 15.833333)" fill="#01D299" fill-rule="nonzero">
                        <path d="M25.3045685,6.9996 C25.3045685,3.14006667 22.653997,0 19.3408458,0 C16.0274415,0 13.3766169,3.13981333 13.3766169,6.9996 C13.2880367,9.61172 14.6319243,12.06196 16.8755333,13.3795467 L16.478188,21.77248 C16.4173575,22.7655069 16.7588381,23.7411792 17.4254896,24.4790933 C17.9142414,25.0225489 18.6103349,25.3330033 19.3408458,25.3333333 C20.0704932,25.3333333 20.7662271,25.023 21.2559489,24.4790933 C21.923593,23.742217 22.2632557,22.7653046 22.1969233,21.7727333 L21.799578,13.3798 C24.0457179,12.0637333 25.3921363,9.61324 25.3048216,6.99985333 L25.3045685,6.9996 Z M10.9383847,0 C10.3894407,0 9.94451523,0.44764 9.94451523,0.999906667 L9.94451523,5.99969333 L6.96214769,5.99969333 L6.96214769,0.999906667 C6.96240078,0.44764 6.51722219,0 5.96827827,0 C5.41908126,0 4.97415576,0.44764 4.97415576,0.999906667 L4.97415576,5.99969333 L1.9922944,5.99969333 L1.9922944,0.999906667 C1.9922944,0.44764 1.54711581,0 0.998171889,0 C0.449227967,0 0.00430246504,0.44764 0.00430246504,0.999906667 L0.00430246504,6.99985333 C-0.0860493008,9.614 1.26138152,12.0660133 3.50954604,13.3795467 L3.1056205,21.77248 C3.04485856,22.7655427 3.38643201,23.7412196 4.05317515,24.4790933 C4.54186799,25.0224833 5.23785555,25.3329316 5.96827827,25.3333333 C6.69767264,25.3333333 7.39315346,25.023 7.88338139,24.4790933 C8.55005992,23.7412825 8.89162871,22.7657101 8.83093604,21.7727333 L8.42675741,13.3798 C10.675175,12.0660133 12.0223528,9.614 11.932001,6.99985333 L11.932001,0.999906667 C11.932001,0.734666667 11.8274764,0.480573333 11.6409519,0.293106667 C11.4550406,0.105742643 11.2022023,0.00026006763 10.9383847,0 Z" id="形状"></path>
                    </g>
                </g>
            </g>
        </g>
    </g>
</svg>