<?xml version="1.0" encoding="UTF-8"?>
<svg width="57px" height="57px" viewBox="0 0 57 57" version="1.1" xmlns="http://www.w3.org/2000/svg" xmlns:xlink="http://www.w3.org/1999/xlink">
    <!-- Generator: Sketch 53.2 (72643) - https://sketchapp.com -->
    <title>icon_1</title>
    <desc>Created with Sketch.</desc>
    <g id="页面-1" stroke="none" stroke-width="1" fill="none" fill-rule="evenodd">
        <g id="后勤管理icon" transform="translate(-108.000000, -124.000000)">
            <g id="分组" transform="translate(108.000000, 124.000000)">
                <g id="icon_1">
                    <circle id="椭圆形" fill="#FFFFFF" cx="28.5" cy="28.5" r="28.5"></circle>
                    <g id="gudingzichancaigou" transform="translate(14.777778, 15.833333)" fill="#017CFF" fill-rule="nonzero">
                        <path d="M18.2893412,9.76480927 C17.8346358,9.32906564 17.3853869,8.89332202 16.9325003,8.44358234 L15.8912251,7.45919363 C15.6184019,7.19233566 15.4528891,7.03744606 15.3983244,6.98146186 C14.9437076,6.52069751 14.3245954,6.27173755 13.685904,6.29285632 C13.0746536,6.31058243 12.4904325,6.55525723 12.0416895,6.98146186 C11.9734836,7.0514421 11.7952392,7.23432379 11.506956,7.50118178 C11.1641081,7.83895306 10.8085285,8.16179524 10.4520395,8.49956652 C10.0273447,8.893322 9.57536757,9.32906564 9.05427522,9.80586434 C8.54773345,10.2835961 8.0266411,10.7613279 7.52009932,11.2539888 C6.30057953,12.392334 4.94464814,13.6575767 3.45048631,15.063713 L3.45048631,22.8455156 C3.42963435,23.249741 3.60370068,23.6386731 3.9161046,23.8858885 C4.28612713,24.1455929 4.72876457,24.2740402 5.17654786,24.2516519 L22.2343649,24.2516519 C22.6909361,24.2599703 23.1311699,24.0774093 23.4538847,23.745928 C23.7442948,23.4590098 23.9084455,23.06322 23.90859,22.649571 L23.90859,15.1206303 C22.5381081,13.8273954 21.1803579,12.5201646 19.8162418,11.2269297 C19.3169753,10.7342689 18.7922453,10.2565371 18.2893412,9.76480927 L18.2893412,9.76480927 Z M16.8642945,17.9189068 C17.0391923,17.9279809 17.203129,18.0090541 17.3189999,18.1437766 C17.4241066,18.2821583 17.4904478,18.4473261 17.5108856,18.6215084 C17.4992882,18.8021303 17.4320987,18.9743106 17.3189999,19.1132362 C17.1993802,19.2427888 17.037586,19.3228025 16.8642945,19.338106 L14.7681028,19.32411 L14.7681028,21.3908597 C14.7839682,21.6643746 14.679086,21.9307051 14.4824845,22.1161393 C14.285883,22.3015736 14.0184159,22.3864423 13.7541099,22.3472563 C13.487167,22.3633778 13.223746,22.2783776 13.0138495,22.1083904 C12.8225464,21.9227095 12.7179318,21.6618417 12.7264757,21.3917928 L12.7264757,19.3390391 L10.630284,19.3390391 C10.4486113,19.3319863 10.2805091,19.2385045 10.1755787,19.0861772 C10.0721651,18.9362977 10.0062677,18.762622 9.98369298,18.5804533 C10.0010252,18.4088265 10.0678321,18.2463977 10.1755787,18.1139184 C10.2946364,17.9874153 10.4588897,17.9162971 10.630284,17.9170406 L12.7264757,17.9170406 L12.7264757,16.3308219 L10.630284,16.3168258 C10.4570617,16.3129532 10.2928616,16.2368039 10.1755787,16.105952 C10.0528919,15.9816561 9.98383609,15.8121219 9.98383609,15.6352183 C9.98383609,15.4583147 10.0528919,15.2887805 10.1755787,15.1644845 C10.2982227,15.0434546 10.4602094,14.9733179 10.630284,14.9676068 L12.1926516,14.9676068 L10.7266815,12.325153 C10.6459444,12.2208987 10.5769947,12.1075838 10.5211547,11.9873817 C10.4534608,11.8482566 10.4251072,11.6924564 10.4393077,11.537642 C10.4670828,11.352025 10.5427553,11.1774129 10.6584757,11.0319181 C10.829948,10.8780614 11.0474642,10.7888572 11.2750562,10.7790562 C11.4454318,10.7899197 11.6082332,10.8551685 11.7406745,10.9656702 C11.86828,11.0684096 11.983388,11.1865123 12.0835224,11.3174375 L13.7413781,14.4245601 L15.5601996,11.2894454 C15.653475,11.1563676 15.7696658,11.0418972 15.9030474,10.9516741 C16.04169,10.8525726 16.2012621,10.7886181 16.3686657,10.7650602 C16.4698938,10.7712339 16.5705202,10.7852701 16.6696806,10.8070483 C16.7561443,10.8212827 16.8368842,10.8604377 16.9024898,10.9199497 C16.9768638,10.981984 17.0386575,11.0583826 17.0843719,11.1448196 C17.1348598,11.2667553 17.171773,11.3941481 17.1944106,11.524579 C17.1924093,11.7504269 17.1150593,11.9687555 16.9752426,12.1432043 L15.2901046,14.9545438 L16.8933957,14.9545438 C17.0634703,14.9602549 17.225457,15.0303917 17.348101,15.1514216 C17.4582625,15.2823765 17.5254037,15.4456181 17.5399867,15.6179565 C17.5283893,15.7985784 17.4611998,15.9707587 17.348101,16.1096843 C17.2361122,16.2495675 17.0698098,16.3318107 16.8933957,16.3345541 L14.8108451,16.3485502 L14.8108451,17.9235721 L16.8642945,17.9189068 Z" id="形状"></path>
                        <path d="M26.8114291,11.8194291 L26.1266428,11.1168275 C25.7028796,10.6846469 25.2736007,10.2581971 24.8389172,9.8375887 C24.2743508,9.28776124 23.7171331,8.73004443 23.1674203,8.16459445 C22.5508398,7.54596913 21.9206182,6.91334776 21.3040377,6.30871851 C20.6738161,5.69009319 20.0435944,5.07146787 19.427014,4.45284255 C18.8104335,3.83421722 18.24478,3.28557215 17.755517,2.77984829 L16.482342,1.51460556 C16.1394942,1.16283821 15.906685,0.954763648 15.7975558,0.853992082 C15.2547728,0.304921896 14.5179363,0.00555028137 13.7559287,0.0244929887 C12.9054262,0.0616452603 12.1032412,0.440330788 11.5224159,1.07886192 C11.4269278,1.17683426 11.1113623,1.48661345 10.5493465,2.02032942 C9.98733061,2.55404539 9.32982666,3.18759981 8.56228401,3.93218956 C7.79474136,4.6767793 6.93171058,5.50627842 6.04139747,6.36376962 C5.20564901,7.16527663 4.35625939,7.96678363 3.52051095,8.76735758 L1.50616617,10.6932138 C0.944150351,11.2418589 0.602211899,11.564701 0.492173215,11.6776025 C0.191648454,11.9762037 0.0228329899,12.3876554 0.0247360929,12.8168808 C0.00246700837,13.2857988 0.195273073,13.7384074 0.545828441,14.0401354 C0.869894238,14.3358525 1.29509171,14.4875366 1.72806239,14.4618829 C2.12246923,14.4660045 2.5073482,14.3375417 2.82390231,14.0961196 C2.91939044,14.0261393 3.18039133,13.7723443 3.63236846,13.3496637 C4.0843456,12.926983 4.60543795,12.4221922 5.23565958,11.817563 C5.85224005,11.2129337 6.52338517,10.5803123 7.25000433,9.89170676 C7.94281307,9.23458811 8.63245793,8.57396661 9.31891374,7.90986637 C9.97641768,7.27724501 10.5520747,6.71460389 11.0586164,6.23687212 C11.5651582,5.75914035 11.8943649,5.43536511 12.0862506,5.26647947 C12.5310627,4.8115961 13.1182649,4.5326646 13.7441063,4.47896851 C14.3942268,4.49757739 15.0103881,4.78093872 15.4565267,5.26647947 C15.5802066,5.37938093 15.8812215,5.674231 16.360481,6.13796672 C16.8260993,6.60450166 17.4017563,7.15034752 18.0456191,7.79696493 C18.703123,8.4295863 19.4024599,9.10326273 20.1281696,9.82172651 C20.8129559,10.496336 21.5122928,11.1709455 22.1970791,11.831559 C22.7427255,12.366208 23.3065601,12.899924 23.8549348,13.4485691 C24.3205531,13.8983087 24.5951951,14.1511707 24.6906833,14.23608 C24.9998586,14.4947513 25.3876084,14.634077 25.7865232,14.6298355 C26.230836,14.650797 26.6649201,14.4889027 26.9924018,14.1800958 C27.298506,13.8938803 27.4600145,13.4796047 27.4307378,13.0557467 C27.3881129,12.5772679 27.1672586,12.1340944 26.8141573,11.818496 L26.8114291,11.8194291 Z" id="路径"></path>
                    </g>
                </g>
            </g>
        </g>
    </g>
</svg>