<?xml version="1.0" encoding="UTF-8"?>
<svg width="15px" height="15px" viewBox="0 0 15 15" version="1.1" xmlns="http://www.w3.org/2000/svg" xmlns:xlink="http://www.w3.org/1999/xlink">
    <title>ruzhu</title>
    <g id="首页" >
        <g id="首页-入住" transform="translate(-562.000000, -356.000000)">
            <g id="分组-24" transform="translate(99.000000, 345.000000)">
                <g id="ruzhu" transform="translate(463.000000, 11.000000)" >
                    <path d="M10.7148454,14.3998759 L3.52536908,14.3998759 C2.09066205,14.3998759 0.911014054,13.2240414 0.911014054,11.7939724 L0.911014054,4.64362759 C0.911014054,4.27816552 1.19795546,3.99215172 1.56460281,3.99215172 C1.93125016,3.99215172 2.21819157,4.27816552 2.21819157,4.64362759 L2.21819157,11.8098621 C2.21819157,12.5248966 2.80801557,13.1128138 3.52536908,13.1128138 L10.7148454,13.1128138 C11.4321989,13.1128138 12.0220229,12.5248966 12.0220229,11.8098621 L12.0220229,4.64362759 C12.0220229,4.27816552 12.3089643,3.99215172 12.6756117,3.99215172 C13.042259,3.99215172 13.3292004,4.27816552 13.3292004,4.64362759 L13.3292004,11.8098621 C13.3292004,13.239931 12.1814348,14.3998759 10.7148454,14.3998759 Z" id="路径" ></path>
                    <path d="M13.7277302,5.64467586 C13.6002006,5.64467586 13.4726711,5.61289655 13.3610828,5.54933793 C11.1452575,4.11926897 8.16425514,2.13306207 7.15996022,1.4498069 C6.13972411,2.13306207 3.2065453,4.08748966 1.02260238,5.51755862 C0.735660973,5.70823448 0.305248865,5.61289655 0.113954595,5.32688276 C-0.0773396757,5.04086897 0.0183074595,4.61184828 0.305248865,4.42117241 C2.98336865,2.6892 6.77737168,0.162744828 6.80925405,0.130965517 C7.0324307,-0.0279310345 7.3353133,-0.0279310345 7.52660757,0.130965517 C7.55848995,0.162744828 11.4162577,2.73686897 14.0943775,4.45295172 C14.3813189,4.64362759 14.4929072,5.04086897 14.2856718,5.35866207 C14.1422011,5.54933793 13.9190244,5.64467586 13.7277302,5.64467586 Z" id="路径" ></path>
                    <path d="M9.74243286,10.4910207 L4.51372281,10.4910207 C4.14707546,10.4910207 3.86013405,10.2050069 3.86013405,9.83954483 C3.86013405,9.47408276 4.14707546,9.18806897 4.51372281,9.18806897 L9.74243286,9.18806897 C10.1090802,9.18806897 10.3960216,9.47408276 10.3960216,9.83954483 C10.3960216,10.2050069 10.093139,10.4910207 9.74243286,10.4910207 Z" id="路径"></path>
                </g>
                <g id="ruzhu-2-copy" transform="translate(347.000000, 10.000000)"></g>
            </g>
        </g>
    </g>
</svg>