<?xml version="1.0" encoding="UTF-8"?>
<svg width="15px" height="15px" viewBox="0 0 15 15" version="1.1" xmlns="http://www.w3.org/2000/svg" xmlns:xlink="http://www.w3.org/1999/xlink">
    <title>tongji</title>
    <g id="首页">
        <g id="首页-入住" transform="translate(-332.000000, -357.000000)" >
            <g id="分组-24" transform="translate(99.000000, 345.000000)">
                <g id="编组-4" transform="translate(233.000000, 7.000000)">
                    <g id="tongji" transform="translate(0.000000, 5.000000)">
                        <path d="M2.64066755,12.3887499 L1.71842004,12.3887499 C0.859542177,12.3880902 0.163452556,11.7076354 0.1627776,10.8680487 L0.1627776,6.20185285 C0.163452556,5.36226618 0.859542177,4.68181139 1.71842004,4.68115159 L2.64066755,4.68115159 C3.49940575,4.68214054 4.19529832,5.36240271 4.19631,6.20185285 L4.19631,10.8728345 C4.1922732,11.7102787 3.49736215,12.3874435 2.64066755,12.3887499 Z M1.71842004,5.69216069 C1.5809468,5.69216069 1.44910411,5.7455451 1.35189584,5.84056998 C1.25468758,5.93559485 1.20007655,6.06447623 1.20007655,6.1988617 L1.20007655,10.8698434 C1.20041378,11.14955 1.43228664,11.3762147 1.71842004,11.3765444 L2.64066755,11.3765444 C2.92666156,11.3758866 3.15833812,11.1494137 3.15901105,10.8698434 L3.15901105,6.1988617 C3.15867382,5.91915512 2.92680096,5.69249034 2.64066755,5.69216069 L1.71842004,5.69216069 Z M7.6919157,12.3887499 L6.76905621,12.3887499 C5.91017834,12.3880902 5.21408872,11.7076354 5.21341376,10.8680487 L5.21341376,3.86875493 C5.21408872,3.02916827 5.91017834,2.34871347 6.76905621,2.34805368 L7.69130372,2.34805368 C8.54990239,2.34937128 9.24559828,3.0294412 9.24694616,3.86875493 L9.24694616,10.8680487 C9.24627172,11.707402 8.55055456,12.3877604 7.6919157,12.3887499 L7.6919157,12.3887499 Z M6.76905621,3.36325039 C6.63158296,3.36325039 6.49974027,3.41663481 6.40253201,3.51165968 C6.30532375,3.60668455 6.25071271,3.73556594 6.25071271,3.8699514 L6.25071271,10.8692452 C6.25104995,11.1489517 6.4829228,11.3756165 6.76905621,11.3759462 L7.69130372,11.3759462 C7.97729772,11.3752883 8.20897428,11.1488155 8.20964721,10.8692452 L8.20964721,3.8699514 C8.20930999,3.59024482 7.97743712,3.36358004 7.69130372,3.36325039 L6.76905621,3.36325039 Z M12.6831902,12.3887499 L11.7609427,12.3887499 C10.9020648,12.3880902 10.2059752,11.7076354 10.2053002,10.8680487 L10.2053002,1.67025881 C10.2059752,0.830672148 10.9020648,0.150217352 11.7609427,0.149557556 L12.6856381,0.149557556 C13.5443763,0.150546507 14.2402689,0.830808678 14.2412805,1.67025881 L14.2412805,10.8698434 C14.2399327,11.7091571 13.5442368,12.389227 12.6856381,12.3905446 L12.6831902,12.3887499 Z M11.7609427,1.16355781 C11.4746695,1.16355781 11.2425992,1.39041558 11.2425992,1.67025881 L11.2425992,10.8698434 C11.2429364,11.14955 11.4748093,11.3762147 11.7609427,11.3765444 L12.6856381,11.3765444 C12.9716321,11.3758866 13.2033087,11.1494137 13.2039816,10.8698434 L13.2039816,1.67025881 C13.2036444,1.39055224 12.9717715,1.16388746 12.6856381,1.16355781 L11.7609427,1.16355781 Z" id="形状"></path>
                        <path d="M13.7198772,14.2468531 L0.684792949,14.2468531 C0.39851975,14.2486702 0.164942525,14.0232855 0.163072446,13.7434423 C0.161224691,13.4635991 0.391788017,13.2352682 0.678061216,13.233442 L13.723549,13.233442 C14.0098222,13.2317991 14.2432625,13.4573177 14.2449616,13.7371609 C14.2466423,14.0170041 14.015942,14.2452011 13.7296688,14.2468531 L13.7229371,14.2468531 L13.7198772,14.2468531 Z" id="路径"></path>
                    </g>
                </g>
            </g>
        </g>
    </g>
</svg>