<?xml version="1.0" encoding="UTF-8"?>
<svg width="15px" height="12px" viewBox="0 0 15 12" version="1.1" xmlns="http://www.w3.org/2000/svg" xmlns:xlink="http://www.w3.org/1999/xlink">
    <title>houqin</title>
    <g id="首页" >
        <g id="首页-入住" transform="translate(-1253.000000, -357.000000)">
            <g id="分组-24" transform="translate(99.000000, 345.000000)">
                <g id="houqin" transform="translate(1154.000000, 12.000000)">
                    <path d="M10.7034432,0.142624671 C11.6302059,0.142624671 12.5158652,0.564356067 13.1695353,1.21908487 C13.823045,1.873653 14.2441091,2.76053204 14.2441091,3.6889441 C14.2441091,4.48891004 13.8817984,5.3669095 13.1917269,6.22783575 C12.8211807,6.69341192 12.145307,7.40480655 11.4024843,8.15202012 L11.4024843,8.15202012 L11.0273548,8.52689793 C9.63933768,9.90552152 8.16084134,11.2867802 8.06189575,11.3774072 C7.74187556,11.6990286 7.46812431,11.836449 7.16380493,11.8364488 C6.85430786,11.835509 6.42010319,11.6876669 6.10982567,11.374883 L6.10982567,11.374883 L1.17306231,6.21305564 C0.536622534,5.40317179 0.159746787,4.86879306 0.159746795,3.78619317 C0.159218727,2.84732373 0.528063091,1.94632871 1.18599827,1.27946203 C1.83164345,0.631508096 2.72113034,0.271646845 3.67961938,0.271646845 C4.3945325,0.271646845 5.06443176,0.485728261 5.6269831,0.884159157 C5.01627153,1.14039526 4.57196181,1.10293907 4.16979662,1.06845648 C2.91908179,1.04259777 2.24525978,1.31424002 1.72895543,1.82596585 C1.21484574,2.34748139 0.926602543,3.0520217 0.926960878,3.78616504 C0.926960878,4.62451844 1.1954687,4.99398474 1.74486518,5.68695285 L1.74486518,5.68695285 L6.66080987,10.83102 C6.79490004,10.9608691 6.96778072,11.0424598 7.15256314,11.0633357 C7.66620648,10.6987459 11.5317154,7.09050941 12.5982242,5.75115202 C13.173525,5.03156059 13.4787038,4.31956129 13.4787038,3.69530435 C13.4787038,2.98095561 13.1406843,2.28767279 12.6242655,1.77281155 C12.1082921,1.25839434 11.4134801,0.921354037 10.6962105,0.921354037 C10.2691659,0.921354037 9.37830882,1.07589161 8.78164188,1.64520402 C8.35448187,2.05547218 7.27533965,3.15864724 6.92831102,3.51339816 C6.71487456,3.03794352 6.80257015,2.84780691 6.92331585,2.64765074 C7.27450939,2.06548881 7.93362655,1.39719463 8.25488321,1.08336391 C8.97752937,0.388438194 10.0265232,0.142624671 10.7034432,0.142624671 Z" id="路径" stroke="#000000" stroke-width="0.1"></path>
                    <path d="M7.16486082,11.9890683 L7.1494914,11.9890683 C6.8502398,11.9890683 6.37017152,11.8527773 6.00311367,11.4838829 L1.07133881,6.32481278 C1.06410615,6.31663532 1.04873673,6.30209761 1.04150405,6.28665129 C0.396892602,5.47344809 0.00723266884,4.90102573 0.00723266884,3.78616504 C0.00723266884,2.80668678 0.395988529,1.85810116 1.07857148,1.17210293 C1.75392177,0.494282161 2.6824154,0.118118894 3.67961938,0.118118894 L3.69498879,0.118118894 C4.4291045,0.118118894 5.12615279,0.343453416 5.71109474,0.757778174 C5.95067684,0.930413491 6.01034635,1.26296363 5.83766642,1.50283585 C5.75676265,1.6192386 5.63294824,1.69834362 5.49373871,1.72257125 C5.35452918,1.74679888 5.21145724,1.71414201 5.09631804,1.63185802 C4.68718179,1.3395177 4.19698319,1.18377633 3.69498879,1.18664063 L3.67961938,1.18664063 C2.95273634,1.18664063 2.31535756,1.4437764 1.83528927,1.92533806 C1.35166898,2.42298467 1.08020026,3.09054704 1.07857148,3.78616504 C1.07857148,4.56938421 1.31905766,4.9082946 1.86512402,5.59429281 L6.7742968,10.7306477 C6.90990932,10.8669388 7.112424,10.9123691 7.17209349,10.9123691 C7.21006499,10.9123691 7.30770601,10.8360461 7.427045,10.71611 L7.44241442,10.7006637 C7.85467645,10.316323 11.4592569,6.92721917 12.4862956,5.65426087 C13.0404987,4.96099379 13.3334218,4.28317303 13.3334218,3.69530435 C13.3334218,2.34693168 12.0586642,1.07397338 10.7025391,1.07397338 C10.2975098,1.07397338 9.45852037,1.21753327 8.8961805,1.7599716 C8.47668581,2.16611889 7.40444292,3.25917302 6.96234615,3.71075067 L6.9325114,3.7407347 C6.7242823,3.94974114 6.38795974,3.95297177 6.1757936,3.74800355 C5.96757309,3.53898137 5.96395668,3.20097316 6.16765684,2.98749955 L6.28066728,2.8748323 C6.8975563,2.23916571 7.52202162,1.61097013 8.15392805,0.99038154 C8.91064584,0.260770186 9.99916223,0.00454303106 10.7025391,0.00454303106 C12.6363735,0.00454303106 14.3975279,1.76724046 14.3975279,3.7025732 C14.3975279,4.53849158 14.0223333,5.45073292 13.3108197,6.33208163 C12.2530421,7.64956166 8.84374367,10.8514924 8.16929746,11.4838829 L8.16116071,11.4920603 C7.8239376,11.8309707 7.51745334,11.9890683 7.16486082,11.9890683 Z M3.67961938,0.524266199 C2.78728908,0.524266199 1.96366911,0.855907727 1.36335775,1.45831411 C0.752590633,2.07746602 0.410353204,2.91431253 0.411355734,3.78616504 C0.411355734,4.79471872 0.756717787,5.26992015 1.35612508,6.03042414 L1.36335775,6.0386016 L6.2951326,11.1976717 C6.55731679,11.4611677 6.92527872,11.5820124 7.15762815,11.5820124 L7.17209349,11.5820124 C7.40444292,11.5820124 7.62232702,11.4693452 7.88451119,11.1976717 L7.89897653,11.183134 C8.31123856,10.7987933 11.9393252,7.39424313 13.0034313,6.07585448 C13.6552754,5.26265129 13.9997312,4.44127063 13.9997312,3.69530435 C13.9997312,1.97076841 12.4338588,0.404330075 10.7097718,0.404330075 C10.0805297,0.404330075 9.10592785,0.629664596 8.43871432,1.27750133 C8.0047543,1.69909494 6.92527873,2.79941793 6.5726862,3.15286601 C6.51301669,3.21374267 6.47504519,3.25917302 6.46057986,3.26644188 C6.43545463,3.29121749 6.42129898,3.32510698 6.42129898,3.3604827 C6.42129898,3.39585841 6.43545463,3.4297479 6.46057986,3.45452352 C6.5130167,3.50722272 6.59528829,3.50722272 6.64772513,3.45452352 L6.67755988,3.42453949 C7.12056074,2.97296185 8.19913222,1.87990773 8.6186269,1.46558297 C9.27047102,0.833192547 10.2369362,0.667826087 10.7097718,0.667826087 C12.2684115,0.667826087 13.7456838,2.13613487 13.7456838,3.69530435 C13.7456838,4.38130257 13.422926,5.14180657 12.8081493,5.91048802 C11.7666453,7.20616149 8.13946271,10.6179805 7.72720069,11.0023212 L7.71906393,11.0095901 C7.50931659,11.2276557 7.35200608,11.3185164 7.17932616,11.3185164 C7.02201565,11.3185164 6.7146273,11.2358332 6.49764728,11.0095901 L1.56587243,5.84961135 C0.989067226,5.12636025 0.68891155,4.70476663 0.688911537,3.78616504 C0.688911537,2.98749957 1.00353255,2.2042804 1.56587243,1.64639574 C2.11284287,1.09032831 2.84786266,0.795939665 3.67961938,0.795939665 L3.69498879,0.795939665 C4.27999879,0.794732023 4.85090953,0.976356193 5.32866747,1.31566282 C5.38833698,1.3529157 5.47060856,1.34564684 5.50858007,1.2856788 C5.530224,1.25817983 5.53932473,1.22278236 5.53364508,1.18818799 C5.52796542,1.15359363 5.50803213,1.12301074 5.47874531,1.1039574 C4.95678908,0.73458574 4.333354,0.537695861 3.69498879,0.540621118 L3.67961938,0.540621118 L3.67961938,0.524266199 Z" id="形状"></path>
                </g>
            </g>
        </g>
    </g>
</svg>