<?xml version="1.0" encoding="UTF-8"?>
<svg width="16px" height="14px" viewBox="0 0 16 14" version="1.1" xmlns="http://www.w3.org/2000/svg" xmlns:xlink="http://www.w3.org/1999/xlink">
    <title>fuwumb-copy</title>
    <g id="首页" >
        <g id="首页-入住" transform="translate(-791.000000, -357.000000)">
            <g id="分组-24" transform="translate(99.000000, 345.000000)">
                <g id="fuwumb-copy" transform="translate(692.000000, 12.000000)">
                    <path d="M14.6566478,2.15529668 L14.6386346,2.15529668 C14.584595,2.14642752 14.539562,2.14642752 14.4855224,2.14642752 C13.999166,2.14642752 13.5938691,2.43024048 13.4227437,2.89143654 L12.540097,5.58765964 C12.3959914,5.53444471 12.2428792,5.50783724 12.0807604,5.50783724 C11.8285756,5.50783724 11.5763908,5.56992133 11.324206,5.70295865 L8.45110088,7.21071499 C8.2079227,7.33488316 8.00077092,7.52113542 7.82964553,7.75173344 C7.65852015,7.52113542 7.44236176,7.33488316 7.20819018,7.21071499 L4.32607841,5.6940895 C4.07389363,5.56105217 3.82170885,5.49896809 3.56952408,5.49896809 C3.40740529,5.49896809 3.2542931,5.52557555 3.11018751,5.57879048 L2.22754078,2.88256738 C2.065422,2.42137133 1.66012503,2.13755837 1.16476207,2.13755837 C1.11072247,2.13755837 1.06568948,2.13755837 1.01164988,2.14642752 L0.993636683,2.14642752 C0.525293521,2.22624992 0.0209239617,2.66083851 0.0119173624,3.43245499 L0.0119173624,3.44132414 L0.138009752,6.79386471 C0.138009752,7.3082757 0.309135138,7.84929415 0.642379312,8.38144344 C0.822511297,8.6652564 1.04767628,8.90472359 1.26383466,9.13532161 L1.27284126,9.14419077 L3.02012152,10.8027227 C3.34435909,11.1131432 3.65959007,11.3969561 3.86674185,11.733984 L4.62329619,12.9401891 C4.72236878,13.0998339 4.89349417,13.1973946 5.07362615,13.1973946 C5.17269875,13.1973946 5.27177134,13.1707871 5.36183733,13.1175722 C5.62302871,12.9579274 5.6950815,12.647507 5.53296272,12.3903015 L4.74938858,11.1308815 C4.4791906,10.6962929 4.11892663,10.3503958 3.74965606,9.99562964 L2.020389,8.34596682 C1.50701284,7.84042499 1.20979507,7.23732246 1.19178187,6.70517316 L1.06568948,3.35263259 C1.06568948,3.29054851 1.07469608,3.18411865 1.16476207,3.16638034 L1.17376867,3.16638034 C1.17376867,3.17524949 1.18277527,3.17524949 1.18277527,3.18411865 L2.17350119,6.23510795 L2.22754078,6.47457513 C2.28158038,6.82934133 2.37164637,7.21958415 2.89402913,7.69851851 C2.96608192,7.79607922 3.06515452,7.86703246 3.11919411,7.90250908 L4.12793323,8.69186387 C4.25402562,8.79829373 4.38011801,8.81603204 4.470184,8.81603204 C4.62329619,8.81603204 4.76740178,8.7450788 4.86647437,8.62091063 C5.06461955,8.3903126 5.03759976,8.07989218 4.80342818,7.89363992 L3.76766926,7.08654682 C3.44343169,6.83821049 3.38939209,6.64308908 3.39839869,6.58987415 C3.42541849,6.56326668 3.47945808,6.54552837 3.53349768,6.54552837 C3.60555047,6.54552837 3.70462306,6.57213584 3.78568246,6.61648161 L6.65878763,8.12423795 C7.0190516,8.33709767 7.22620338,8.90472359 7.21719678,9.33931218 L7.25322318,11.0067133 L7.25322318,11.0155825 C7.26222978,11.1220123 7.30726277,11.219573 7.37931557,11.2993954 C7.46037496,11.3969561 7.57746075,11.4679094 7.70355314,11.4945168 L7.78461254,11.5122551 L7.80262573,11.5122551 L7.88368513,11.4945168 C8.00977752,11.4679094 8.12686331,11.3969561 8.2079227,11.2993954 C8.2799755,11.219573 8.32500849,11.1131432 8.33401509,11.0155825 L8.33401509,11.0067133 L8.37004149,9.33931218 C8.37004149,8.90472359 8.57719327,8.33709767 8.92845064,8.12423795 L11.7925492,6.61648161 C11.8916218,6.57213584 11.9816878,6.54552837 12.0537406,6.54552837 C12.1077802,6.54552837 12.1618198,6.56326668 12.1888396,6.58987415 C12.1888396,6.64308908 12.1438066,6.82934133 11.819569,7.08654682 L10.7838101,7.89363992 C10.5496385,8.08876133 10.5226187,8.3903126 10.7207639,8.62091063 C10.8288431,8.7450788 10.9729487,8.81603204 11.1170543,8.81603204 C11.1981137,8.81603204 11.324206,8.79829373 11.459305,8.69186387 L12.4680442,7.90250908 C12.5220838,7.86703246 12.6211563,7.79607922 12.6932091,7.69851851 C13.2065853,7.21958415 13.3056579,6.82934133 13.3596975,6.47457513 L13.4137371,6.23510795 L14.404463,3.1929878 C14.4134696,3.17524949 14.4134696,3.16638034 14.4224762,3.16638034 L14.4404894,3.16638034 C14.5215488,3.17524949 14.5305554,3.28167935 14.5305554,3.35263259 L14.404463,6.70517316 C14.3864498,7.23732246 14.089232,7.83155584 13.5848625,8.33709767 L11.8555954,9.98676049 C11.4773182,10.3326575 11.1260609,10.6874237 10.8468563,11.1220123 L10.0632822,12.3814323 C9.90116336,12.6386378 9.98222276,12.9490582 10.2434141,13.108703 C10.3334801,13.161918 10.4325527,13.1885254 10.5316253,13.1885254 C10.7117573,13.1885254 10.8828827,13.0909647 10.9819553,12.9313199 L11.7385096,11.7251149 C11.9456614,11.388087 12.2608924,11.104274 12.5851299,10.7938536 L14.3234036,9.14419077 L14.3414168,9.12645246 C14.5575752,8.89585443 14.7827402,8.65638725 14.9628722,8.37257429 C15.2871097,7.84929415 15.4672417,7.29940654 15.4672417,6.78499556 L15.5933341,3.43245499 L15.5933341,3.41471668 C15.6293605,2.67857682 15.1249909,2.23511907 14.6566478,2.15529668 L14.6566478,2.15529668 Z" id="路径"></path>
                    <path d="M7.55944755,5.57879048 C7.64951355,5.63200541 7.73957954,5.65861288 7.83865213,5.65861288 C7.93772472,5.65861288 8.03679731,5.63200541 8.11785671,5.57879048 C8.41507448,5.40140738 10.9819553,3.8049595 10.9819553,2.02225935 C10.9819553,0.913614985 10.045269,0.00896118113 8.89242425,0.00896118113 C8.51414708,0.00896118113 8.15388311,0.106521886 7.82964553,0.292774139 C7.51441456,0.106521885 7.14514399,0.00896118113 6.76686682,0.00896118113 C5.61402211,0.00896118113 4.67733579,0.913614985 4.67733579,2.02225935 C4.69534898,3.8049595 7.26222978,5.40140738 7.55944755,5.57879048 Z M6.77587342,1.07325977 C7.0370648,1.07325977 7.28024298,1.17082048 7.46938156,1.33933442 C7.67653334,1.52558668 8.00077092,1.52558668 8.1989161,1.33933442 C8.38805469,1.17082048 8.63123287,1.07325977 8.89242425,1.07325977 C9.4508334,1.07325977 9.90116336,1.49897921 9.90116336,2.02225935 C9.90116336,2.82935245 8.73030546,3.88478189 7.83865213,4.48788443 C6.9469988,3.88478189 5.7761409,2.82935245 5.7761409,2.02225935 C5.7761409,1.49897921 6.22647086,1.07325977 6.77587342,1.07325977 L6.77587342,1.07325977 Z" id="形状"></path>
                </g>
            </g>
        </g>
    </g>
</svg>