<?xml version="1.0" encoding="UTF-8"?>
<svg width="35px" height="35px" viewBox="0 0 35 35" version="1.1" xmlns="http://www.w3.org/2000/svg" xmlns:xlink="http://www.w3.org/1999/xlink">
    <title>icon_41</title>
    <g id="首页" stroke="none" stroke-width="1" fill="none" fill-rule="evenodd">
        <g id="icon" transform="translate(-1055.000000, -294.000000)">
            <g id="分组-23" transform="translate(861.000000, 294.000000)">
                <g id="icon_41" transform="translate(194.000000, 0.000000)">
                    <rect id="矩形-copy-21" fill="#3296FA" x="0" y="0" width="35" height="35" rx="6"></rect>
                    <g id="yanzheng" transform="translate(9.000000, 7.000000)" fill="#FFFFFF" fill-rule="nonzero">
                        <path d="M17.0568391,4.02083333 C17.0568391,3.64583333 16.8072978,3.27083333 16.3082152,3.27083333 L15.5595914,3.27083333 C15.5595914,3.27083333 13.937573,3.27083333 12.3155547,2.52083333 C10.5687657,1.89583333 9.44582988,1.14583333 9.44582988,1.14583333 L8.94674731,0.770833327 C8.82197667,0.645833327 8.69720603,0.645833327 8.57243539,0.645833327 C8.44766474,0.645833327 8.3228941,0.645833327 8.19812346,0.770833327 L7.69904089,1.14583333 C7.69904089,1.14583333 6.57610511,2.02083333 4.82931612,2.64583333 C3.20729777,3.27083333 1.58527942,3.39583333 1.58527942,3.39583333 L0.83665557,3.39583333 C0.462343644,3.39583333 0.088031717,3.77083333 0.088031717,4.14583333 L0.088031717,11.8958333 C0.088031717,13.8958333 1.2109675,16.0208333 3.20729777,17.8958333 C4.95408676,19.6458333 7.07518768,20.6458333 8.57243539,20.6458333 C10.0696831,20.6458333 12.190784,19.6458333 13.937573,17.8958333 C15.9339033,16.0208333 17.0568391,13.8958333 17.0568391,11.8958333 L17.0568391,4.02083333 Z M12.9394079,8.77083333 L8.3228941,13.3958333 C8.19812346,13.5208333 7.94858218,13.6458333 7.69904089,13.6458333 C7.44949961,13.6458333 7.19995832,13.5208333 7.07518768,13.3958333 L4.70454548,11.1458333 C4.57977484,10.8958333 4.45500419,10.7708333 4.45500419,10.5208333 C4.45500419,10.2708333 4.57977484,10.0208333 4.70454548,9.89583333 C5.07885741,9.52083333 5.57793997,9.52083333 5.9522519,9.89583333 L7.57427025,11.5208333 L11.5669308,7.52083333 C11.9412427,7.14583333 12.4403253,7.14583333 12.8146372,7.52083333 C12.9394079,7.64583333 13.0641785,7.89583333 13.0641785,8.14583333 C13.1889491,8.39583333 13.0641785,8.64583333 12.9394079,8.77083333 Z" id="形状"></path>
                    </g>
                </g>
            </g>
        </g>
    </g>
</svg>